<svg width="345" height="345" viewBox="0 0 345 345" fill="none" xmlns="http://www.w3.org/2000/svg">
<path d="M112.377 3.20871C117.642 6.10638 122.016 9.85229 126.436 13.8923C127.06 14.4466 127.684 15.0009 128.327 15.572C137.843 24.5107 144.992 35.7651 151.388 47.0466C152.36 48.7595 153.356 50.4593 154.354 52.1579C164.648 70.4107 172.45 90.8437 178.436 110.892C178.707 111.79 178.977 112.689 179.256 113.614C180.119 116.495 180.969 119.38 181.811 122.267C182.206 123.616 182.206 123.616 182.609 124.992C182.968 126.254 182.968 126.254 183.334 127.541C183.548 128.285 183.761 129.029 183.98 129.796C184.436 131.892 184.436 131.892 184.436 135.892C184.933 135.551 185.43 135.209 185.942 134.858C190.942 131.424 195.95 128.002 200.962 124.585C203.057 123.152 205.144 121.708 207.229 120.259C239.361 98.124 282.805 73.6227 323.373 78.5173C330.387 79.8139 335.932 82.2602 340.873 87.4548C344.284 92.776 345.337 96.5823 344.436 102.892C342.006 111.05 338.119 117.621 332.436 123.892C331.604 124.817 330.773 125.741 329.916 126.693C299.963 158.806 251.849 174.359 210.436 184.892C210.436 189.077 212.726 191.218 215.186 194.392C240.554 228.076 265.275 271.242 265.873 314.267C265.907 315.765 265.907 315.765 265.941 317.293C265.916 325.17 264.529 332.198 259.366 338.365C258.349 339.152 258.349 339.152 257.311 339.955C256.628 340.503 255.945 341.051 255.241 341.615C250.387 345.05 245.169 344.639 239.436 343.892C214.35 335.597 198.783 309.044 187.436 286.892C181.824 275.488 176.752 263.848 172.436 251.892C172.041 250.862 171.647 249.832 171.241 248.771C168.499 241.451 166.266 234.05 164.186 226.517C163.928 225.59 163.669 224.663 163.403 223.707C161.978 218.43 160.971 213.333 160.436 207.892C159.945 208.243 159.455 208.594 158.949 208.955C131.48 228.534 103.312 246.353 71.4359 257.892C70.4326 258.268 70.4326 258.268 69.4091 258.652C52.9105 264.821 30.8092 270.285 13.5492 263.935C8.62142 261.503 4.77241 258.646 1.43591 254.267C-0.783322 246.777 -0.493439 240.032 2.74841 232.892C6.61573 225.938 11.8206 220.431 17.4359 214.892C18.2802 214.038 19.1246 213.183 19.9945 212.302C47.6114 185.694 88.3599 172.186 124.498 161.955C125.243 161.743 125.987 161.531 126.754 161.313C130.144 160.385 132.89 159.892 136.436 159.892C135.66 158.848 134.884 157.804 134.084 156.728C112.502 127.431 94.6759 96.6294 83.4359 61.8923C83.1459 61.0312 82.8558 60.1701 82.557 59.2829C77.8495 44.5416 75.5232 26.6107 81.4359 11.8923C88.4294 -1.13011 99.6379 -2.51997 112.377 3.20871Z" fill="#1f1840"/>
</svg>
