<svg width="204" height="393" viewBox="0 0 204 393" fill="none" xmlns="http://www.w3.org/2000/svg">
<path d="M90.4643 8.73127C106.827 21.4895 118.251 37.9616 127.902 56.1688C128.226 56.7801 128.55 57.3914 128.884 58.0213C133.09 66.0197 136.887 74.1831 140.464 82.4813C141.003 83.7095 141.003 83.7095 141.552 84.9625C142.037 86.1107 142.037 86.1107 142.531 87.2821C142.82 87.9605 143.11 88.639 143.408 89.338C143.902 91.1688 143.902 91.1688 142.902 94.1688C142.368 93.104 141.834 92.0392 141.285 90.9422C136.233 81.0358 130.669 71.9893 123.902 63.1688C123.121 62.1092 123.121 62.1092 122.324 61.0281C116.481 53.5736 107.144 46.5778 97.9018 44.1688C88.3927 43.0716 81.301 44.6307 73.4643 49.9813C54.6765 65.4707 48.1707 96.2577 45.9018 119.169C45.8164 119.988 45.731 120.808 45.643 121.653C44.6135 132.887 44.6601 144.146 44.6518 155.419C44.6505 156.489 44.6491 157.559 44.6477 158.661C44.6518 173.501 45.0124 187.992 47.4829 202.659C47.9078 205.205 48.2745 207.753 48.6284 210.309C50.0635 220.44 52.1688 230.309 54.9018 240.169C55.2573 241.477 55.2573 241.477 55.6201 242.812C63.4838 271.576 73.3803 299.44 91.9018 323.169C92.42 323.87 92.9382 324.571 93.4721 325.294C99.859 333.469 110.326 341.181 120.777 342.544C129.308 342.892 136.576 340.912 143.464 335.794C152.685 327.116 157.812 314.886 161.902 303.169C162.281 302.089 162.66 301.008 163.05 299.895C165.819 291.464 167.423 282.899 168.902 274.169C169.232 274.169 169.562 274.169 169.902 274.169C168.288 310.388 161.211 356.485 133.464 382.669C123.324 391.098 112.749 393.322 99.9018 392.169C96.2135 391.341 93.1909 390.012 89.9018 388.169C89.0111 387.671 88.1203 387.174 87.2026 386.661C55.5293 367.666 39.0877 329.385 26.9018 296.169C26.4442 294.963 25.9866 293.758 25.5151 292.516C18.5175 273.745 13.7133 254.246 10.3105 234.524C9.92267 232.289 9.5157 230.059 9.10102 227.829C8.32309 223.616 7.60197 219.395 6.9018 215.169C6.77418 214.413 6.64656 213.657 6.51508 212.878C-3.24217 154.081 -6.33547 73.158 28.6245 21.6297C30.3089 19.3966 32.0584 17.2721 33.9018 15.1688C34.8087 14.1208 34.8087 14.1208 35.7338 13.0516C50.9983 -3.42534 72.414 -3.65565 90.4643 8.73127Z" fill="#1f1840"/>
<path d="M168.902 138.169C171.147 140.414 171.257 141.104 171.718 144.134C171.843 144.935 171.967 145.736 172.095 146.561C172.217 147.401 172.339 148.241 172.464 149.106C172.59 149.911 172.716 150.716 172.845 151.546C172.968 152.358 173.091 153.171 173.218 154.009C173.414 155.259 173.414 155.259 173.614 156.535C173.902 159.169 173.902 159.169 173.82 162.04C173.791 165.052 173.902 167.322 174.902 170.169C178.25 173.07 181.997 174.553 186.089 176.169C187.132 176.619 188.174 177.068 189.247 177.532C191.247 178.394 193.253 179.24 195.267 180.067C198.228 181.305 201.062 182.678 203.902 184.169C200.866 187.437 197.31 189.13 193.339 191.044C191.276 192.055 189.215 193.066 187.169 194.112C184.902 195.169 184.902 195.169 182.232 196.024C179.263 197.106 177.255 198.043 174.902 200.169C173.139 204.956 172.766 209.804 172.402 214.856C172.156 217.508 171.887 220.156 171.621 222.805C171.527 223.978 171.434 225.151 171.337 226.359C170.902 229.169 170.902 229.169 168.902 231.169C168.318 230.533 167.734 229.896 167.133 229.241C164.935 226.872 162.716 224.528 160.479 222.197C159.519 221.187 158.569 220.168 157.628 219.141C152.317 213.087 152.317 213.087 145.362 209.442C142.746 209.384 140.468 209.667 137.902 210.169C137.005 210.306 136.108 210.443 135.184 210.585C132.404 211.043 129.658 211.59 126.902 212.169C125.048 212.545 123.194 212.92 121.339 213.294C120.534 213.461 119.728 213.629 118.898 213.802C116.902 214.169 116.902 214.169 114.902 214.169C116.144 210.113 117.632 206.627 119.792 202.981C120.336 202.035 120.88 201.089 121.441 200.114C122.585 198.144 123.742 196.18 124.91 194.223C125.448 193.277 125.987 192.331 126.542 191.356C127.043 190.504 127.543 189.652 128.059 188.774C129.475 184.398 127.474 181.364 125.573 177.392C125.081 176.466 124.589 175.541 124.081 174.587C123.547 173.573 123.012 172.559 122.46 171.514C121.905 170.472 121.349 169.43 120.777 168.356C119.668 166.267 118.561 164.177 117.456 162.087C116.966 161.167 116.476 160.246 115.972 159.298C114.902 157.169 114.902 157.169 114.902 156.169C122.747 156.607 130.336 157.669 138.025 159.24C141.923 159.995 145.118 160.536 148.902 159.169C150.544 157.793 150.544 157.793 151.902 155.919C155.319 151.748 159.013 147.959 162.839 144.169C163.728 143.286 163.728 143.286 164.634 142.386C166.055 140.978 167.478 139.573 168.902 138.169Z" fill="#1f1840"/>
</svg>
