<svg width="557" height="211" viewBox="0 0 557 211" fill="none" xmlns="http://www.w3.org/2000/svg">
<path d="M96.8911 10.6992C110.662 20.6972 120.982 35.0236 124.176 52.0391C125.944 67.8968 123.295 81.7131 115.457 95.5625C116.185 95.1642 116.912 94.7659 117.661 94.3555C132.621 86.4723 148.086 83.8582 164.551 88.5625C169.629 90.3098 174.559 92.3652 179.457 94.5625C178.951 93.4197 178.951 93.4197 178.434 92.2539C177.988 91.2214 177.542 90.1888 177.082 89.125C176.642 88.1157 176.201 87.1063 175.747 86.0664C170.138 70.8204 170.45 52.1244 176.899 37.2344C180.712 29.6257 185.42 23.526 191.457 17.5625C192.071 16.927 192.685 16.2915 193.317 15.6367C204.02 5.32252 218.789 0.594582 233.395 0.1875C252.579 0.718613 267.461 7.88932 280.457 21.5625C291.068 33.3237 296.062 47.0265 295.957 62.8125C295.952 63.8118 295.947 64.811 295.942 65.8406C295.644 78.6182 291.701 88.9827 284.457 99.5625C285.17 99.092 285.883 98.6215 286.618 98.1367C301.859 88.2288 317.432 84.2681 335.52 87.1875C342.411 88.795 348.962 91.8084 355.457 94.5625C354.88 93.5519 354.302 92.5412 353.707 91.5C349.006 81.8966 347.103 72.2922 347.082 61.6875C347.081 60.9156 347.079 60.1437 347.078 59.3484C347.243 50.7614 349.13 43.2683 353.02 35.625C353.369 34.9355 353.717 34.246 354.076 33.5356C357.338 27.3486 361.39 22.389 366.457 17.5625C367.283 16.7253 367.283 16.7253 368.125 15.8711C378.732 5.84041 393.815 0.636671 408.207 0C422.73 0.509846 435.772 5.00968 447.457 13.5625C448.066 13.9827 448.674 14.403 449.301 14.8359C459.958 22.8283 468.31 37.5233 470.457 50.5625C471.967 66.9329 470.064 80.9076 462.457 95.5625C463.184 95.1642 463.912 94.7659 464.661 94.3555C479.593 86.4871 495.154 83.7963 511.586 88.5898C523.206 92.5263 532.06 97.5024 540.457 106.562C541 107.112 541.543 107.661 542.102 108.227C554.279 121.119 557.179 136.429 556.739 153.523C555.996 170.259 548.13 184.398 536.079 195.816C522.145 207.603 506.491 211.726 488.457 210.562C485.033 210.141 481.782 209.479 478.457 208.562C477.357 208.271 477.357 208.271 476.235 207.973C459.668 203.035 447.178 191.79 438.922 176.77C434.47 167.566 433.064 158.415 433.082 148.25C433.084 147.336 433.086 146.423 433.087 145.482C433.28 134.789 436.318 125.924 441.457 116.562C440.73 116.889 440.003 117.215 439.254 117.551C421.149 125.42 403.208 127.642 384.457 120.562C381.539 119.076 379.106 117.508 376.457 115.562C376.856 116.362 377.254 117.161 377.664 117.984C386.252 135.787 387.854 151.742 381.426 170.586C375.338 186.589 364.441 197.685 349.457 205.562C333.183 212.345 315.939 212.52 299.457 206.562C291.159 203.044 284.801 197.895 278.457 191.562C277.808 190.924 277.158 190.286 276.489 189.629C264.679 177.172 260.882 160.708 261.184 144.051C261.697 132.223 265.99 122.318 272.457 112.562C271.788 113.01 271.119 113.457 270.43 113.918C255.155 123.534 238.083 127.389 220.204 123.793C213.541 122.233 207.398 119.957 201.457 116.562C201.867 117.348 202.277 118.133 202.7 118.941C203.238 119.992 203.777 121.043 204.332 122.125C204.866 123.158 205.4 124.19 205.95 125.254C212.053 138.648 211.512 156.576 206.65 170.375C200.283 186.777 188.659 198.194 173.02 205.875C157.214 212.783 140.385 212.291 124.406 206.358C119.398 204.313 114.893 201.635 110.457 198.562C109.806 198.114 109.156 197.665 108.485 197.203C96.7232 188.094 88.7501 173.112 86.4575 158.562C86.1797 155.285 86.123 152.038 86.145 148.75C86.1523 147.437 86.1523 147.437 86.1599 146.098C86.3587 135.069 89.0773 126.174 94.4575 116.562C93.2451 117.069 93.2451 117.069 92.0083 117.586C90.9396 118.032 89.871 118.478 88.77 118.938C87.7142 119.378 86.6585 119.819 85.5708 120.273C84.5434 120.699 83.516 121.124 82.4575 121.562C81.6467 121.926 80.8358 122.29 80.0004 122.664C67.0034 127.256 49.5063 125.649 37.1879 120.086C19.5597 111.097 9.26179 98.6537 2.20747 80.3125C-2.318 63.7191 0.308275 45.9721 8.31294 30.957C17.2365 16.138 31.8304 6.44391 48.27 1.75C64.7461 -1.90433 82.7183 1.49382 96.8911 10.6992Z" fill="#1f1840"/>
</svg>
