<svg width="377" height="332" viewBox="0 0 377 332" fill="none" xmlns="http://www.w3.org/2000/svg">
<path d="M111.347 12.7238C112.161 13.0708 112.974 13.4177 113.812 13.7751C136.471 23.5987 156.5 37.9097 175.347 53.7238C176.461 54.6514 177.576 55.5785 178.691 56.5051C181.58 58.9071 184.464 61.3142 187.347 63.7238C191.706 62.3123 194.165 60.2333 197.409 57.0363C231.5 24.6808 277.747 -0.258552 325.39 0.481658C340.221 0.947783 353.462 6.05423 364.347 16.4387C374.71 28.2793 377.509 42.2237 376.563 57.5481C373.62 87.2158 354.708 113.291 335.347 134.724C334.798 135.334 334.25 135.945 333.684 136.573C328.164 142.691 322.671 148.769 316.335 154.06C313.781 156.198 311.318 158.428 308.847 160.661C307.991 161.433 307.135 162.206 306.253 163.001C305.624 163.57 304.995 164.138 304.347 164.724C305.878 168.496 308.112 170.506 311.159 173.161C325.326 185.828 339.393 199.123 350.347 214.724C350.77 215.318 351.193 215.913 351.628 216.525C364.956 235.4 376.512 256.392 376.659 280.036C376.665 280.777 376.671 281.518 376.676 282.281C376.512 294.803 371.95 306.613 363.347 315.724C358.216 320.393 352.769 324.103 346.347 326.724C345.518 327.096 344.689 327.469 343.835 327.853C329.194 333.463 310.45 332.135 295.347 328.724C293.924 328.432 293.924 328.432 292.472 328.134C256.714 320.098 224.32 298.151 197.23 274.247C194.656 271.994 192.036 269.837 189.347 267.724C184.928 269.147 182.4 271.314 179.097 274.536C145.806 306.075 99.5545 331.992 52.8978 330.931C37.5876 330.415 23.3586 325.829 12.1712 314.833C1.6919 302.716 -0.675586 288.208 0.346982 272.724C2.17865 248.946 16.8871 226.791 31.347 208.724C32.1385 207.708 32.9299 206.692 33.7454 205.646C40.0269 197.88 47.0459 190.846 54.097 183.786C54.5988 183.283 55.1006 182.781 55.6176 182.262C61.0173 176.864 66.4546 171.588 72.347 166.724C70.6163 163.001 68.6508 161.001 65.5345 158.286C50.3733 144.704 35.946 130.511 24.347 113.724C23.9253 113.12 23.5036 112.517 23.0692 111.895C8.73087 91.1668 -2.103 67.4108 0.346982 41.7238C2.6522 29.2702 8.82623 18.0061 19.347 10.7238C47.7126 -7.35782 82.2814 0.276679 111.347 12.7238ZM62.347 40.7238C61.5555 41.1595 60.764 41.5953 59.9485 42.0442C51.289 47.309 44.9265 54.8296 41.7649 64.5051C37.8908 85.0709 46.405 104.255 57.347 121.099C68.3887 137.007 82.1268 152.675 97.347 164.724C98.007 164.724 98.667 164.724 99.347 164.724C99.347 165.384 99.347 166.044 99.347 166.724C98.7569 166.992 98.1668 167.261 97.5589 167.538C95.3367 168.729 93.7845 169.975 91.9564 171.7C91.3334 172.284 90.7105 172.868 90.0687 173.47C89.418 174.09 88.7674 174.71 88.097 175.349C87.0862 176.306 87.0862 176.306 86.055 177.282C84.7294 178.541 83.4061 179.801 82.0853 181.065C80.7235 182.365 79.3499 183.652 77.972 184.935C59.9245 202.155 43.0667 227.303 41.0384 252.568C40.8222 264.473 43.2461 274.456 51.472 283.411C63.2679 294.438 77.4182 295.556 92.8001 295.224C123.396 293.586 152.448 274.755 175.347 255.724C175.927 255.245 176.507 254.767 177.104 254.274C180.535 251.443 183.949 248.593 187.347 245.724C191.516 247.104 193.92 248.972 197.034 252.036C221.622 274.851 255.481 294.89 289.722 294.911C290.725 294.924 291.728 294.936 292.761 294.948C304.465 294.971 315.033 291.94 324.222 284.349C324.923 283.483 325.624 282.616 326.347 281.724C326.847 281.139 327.347 280.553 327.863 279.95C333.814 272.641 335.925 265.02 335.847 255.661C335.841 254.84 335.834 254.018 335.827 253.172C334.908 221.835 309.255 194.823 288.044 174.306C285.228 171.681 282.299 169.193 279.347 166.724C281.21 162.625 283.959 160.106 287.284 157.161C288.469 156.086 289.653 155.009 290.835 153.931C291.428 153.392 292.02 152.852 292.631 152.297C312.369 134.209 334.11 107.908 335.667 80.0559C335.951 71.6157 336.143 64.0102 331.347 56.7238C330.512 55.2079 330.512 55.2079 329.659 53.6613C322.129 44.0952 313.248 38.9698 301.347 36.7238C283.037 34.7829 263.614 38.0321 247.347 46.7238C246.134 47.3095 244.919 47.8898 243.702 48.466C224.779 57.5033 208.182 69.1503 192.925 83.552C190.945 85.0224 189.834 85.6227 187.347 85.7238C184.937 84.1692 184.937 84.1692 182.284 81.8488C181.309 81.0148 180.333 80.1808 179.327 79.3215C177.852 78.0357 177.852 78.0357 176.347 76.7238C149.794 54.0256 98.0525 20.4108 62.347 40.7238Z" fill="#1f1840"/>
</svg>
