<svg width="946" height="132" viewBox="0 0 946 132" fill="none" xmlns="http://www.w3.org/2000/svg">
<path d="M30.8083 79.4051C31.6068 79.4053 32.4052 79.4055 33.2279 79.4056C34.6073 79.4022 34.6073 79.4022 36.0147 79.3988C37.5509 79.4027 37.5509 79.4027 39.1182 79.4068C40.7407 79.405 40.7407 79.405 42.3961 79.4033C46.0698 79.4006 49.7434 79.4051 53.4171 79.4096C56.0579 79.4091 58.6986 79.4083 61.3393 79.407C67.1061 79.4049 72.8728 79.4065 78.6395 79.4106C87.2145 79.4166 95.7894 79.4169 104.364 79.4161C118.787 79.4147 133.209 79.4181 147.631 79.4241C161.918 79.43 176.205 79.4338 190.491 79.4349C191.379 79.435 192.266 79.4351 193.18 79.4351C197.685 79.4355 202.19 79.4358 206.696 79.4361C238.635 79.4382 270.574 79.4449 302.513 79.4544C333.548 79.4636 364.583 79.4706 395.617 79.4749C396.573 79.475 397.53 79.4751 398.515 79.4753C408.116 79.4766 417.716 79.4779 427.317 79.4791C446.877 79.4817 466.436 79.4845 485.995 79.4875C486.895 79.4876 487.794 79.4877 488.721 79.4879C548.814 79.4971 608.907 79.5129 669 79.5298C668.066 81.4131 667.131 83.2954 666.195 85.1773C665.674 86.2256 665.153 87.2739 664.617 88.354C662.125 93.2495 659.416 98.0134 656.688 102.78C655.551 104.777 654.414 106.774 653.277 108.772C652.724 109.742 652.171 110.713 651.601 111.712C648.918 116.434 646.269 121.176 643.628 125.921C641.11 130.42 641.11 130.42 640 131.53C638.593 131.627 637.182 131.654 635.772 131.654C634.393 131.657 634.393 131.657 632.985 131.661C631.449 131.657 631.449 131.657 629.882 131.653C628.8 131.654 627.718 131.655 626.604 131.656C622.93 131.659 619.257 131.654 615.583 131.65C612.942 131.651 610.301 131.651 607.661 131.653C601.894 131.655 596.127 131.653 590.361 131.649C581.786 131.643 573.211 131.643 564.636 131.644C550.213 131.645 535.791 131.642 521.369 131.636C507.082 131.63 492.795 131.626 478.509 131.625C477.621 131.625 476.734 131.625 475.82 131.624C471.315 131.624 466.81 131.624 462.304 131.624C430.365 131.621 398.426 131.615 366.487 131.605C335.452 131.596 304.417 131.589 273.383 131.585C272.427 131.585 271.47 131.584 270.485 131.584C260.885 131.583 251.284 131.582 241.683 131.581C222.123 131.578 202.564 131.575 183.005 131.572C182.105 131.572 181.206 131.572 180.279 131.572C120.186 131.563 60.093 131.547 0 131.53C0.933626 129.647 1.86914 127.764 2.80542 125.882C3.32618 124.834 3.84693 123.786 4.38347 122.706C6.87535 117.81 9.58388 113.046 12.3125 108.28C13.4494 106.283 14.5861 104.285 15.7227 102.288C16.2758 101.317 16.829 100.347 17.3989 99.3472C20.0823 94.6253 22.7312 89.8839 25.3723 85.1382C28.4918 79.5648 28.4918 79.5648 30.8083 79.4051Z" fill="#1f1840"/>
<path d="M74.5681 0.149498C75.5297 0.144839 76.4912 0.140179 77.4819 0.135378C80.7169 0.123388 83.9514 0.132838 87.1864 0.142135C89.5239 0.137964 91.8615 0.132488 94.199 0.125815C99.9578 0.112835 105.716 0.113865 111.475 0.120778C118.373 0.128287 125.271 0.118425 132.169 0.108075C145.685 0.0883936 159.201 0.086063 172.717 0.0912698C184.546 0.0958247 196.376 0.0952305 208.206 0.0894294C209.792 0.0886725 211.378 0.0879166 212.964 0.0871615C215.354 0.0860163 217.744 0.0848664 220.134 0.0837022C242.359 0.0729947 264.584 0.0682745 286.809 0.0761724C287.647 0.0764696 288.485 0.0767667 289.349 0.0770729C296.155 0.0795219 302.961 0.0821335 309.766 0.084757C336.312 0.0948585 362.857 0.086507 389.402 0.0632625C419.22 0.0371947 449.038 0.0243408 478.855 0.0314502C482.034 0.0321663 485.213 0.0328407 488.392 0.0334907C489.567 0.0337454 489.567 0.0337454 490.764 0.0340053C502.585 0.0363091 514.405 0.0283273 526.226 0.0151992C539.668 0.000295994 553.111 -0.000566073 566.554 0.0172701C573.415 0.0259983 580.275 0.0283938 587.136 0.0126186C593.415 -0.001169 599.693 0.0034584 605.972 0.0228578C608.245 0.0266364 610.519 0.0236428 612.792 0.0132461C615.88 0.000126059 618.966 0.011616 622.054 0.029244C622.939 0.0195935 623.823 0.00994295 624.734 0C632.089 0.0863177 638.027 2.09764 643.75 6.77982C649.006 13.2041 652.408 18.7333 652.281 27.2447C651.421 34.2354 648.412 40.0416 643 44.5298C642.196 45.2517 641.391 45.9736 640.562 46.7173C634.837 50.7667 629.197 50.8189 622.45 50.7899C621.011 50.7956 621.011 50.7956 619.542 50.8014C616.314 50.8117 613.086 50.8078 609.858 50.804C607.525 50.8084 605.193 50.8137 602.86 50.8198C597.113 50.8326 591.366 50.8359 585.62 50.8353C578.736 50.8351 571.852 50.8464 564.969 50.8579C549.91 50.8827 534.851 50.8915 519.792 50.8965C519.012 50.8967 518.233 50.897 517.429 50.8973C516.257 50.8976 516.257 50.8977 515.061 50.898C506.402 50.9011 497.744 50.9076 489.085 50.9143C462.935 50.9339 436.784 50.9503 410.634 50.9531C409.797 50.9532 408.961 50.9533 408.099 50.9534C404.709 50.9538 401.319 50.9542 397.93 50.9545C395.378 50.9548 392.827 50.9551 390.275 50.9554C389.011 50.9555 389.011 50.9555 387.721 50.9556C361.229 50.9585 334.738 50.9806 308.246 51.0169C278.487 51.0576 248.728 51.0813 218.969 51.0816C215.796 51.0817 212.623 51.0819 209.45 51.0821C208.669 51.0821 207.887 51.0822 207.082 51.0822C194.508 51.0833 181.933 51.1007 169.359 51.1239C156.721 51.1467 144.083 51.151 131.446 51.1363C124.599 51.1289 117.752 51.1294 110.906 51.1528C104.639 51.1733 98.3718 51.1708 92.1046 51.1499C89.8368 51.1464 87.5689 51.1513 85.3011 51.1656C82.2179 51.1837 79.1363 51.171 76.0531 51.1506C75.173 51.1632 74.2929 51.1758 73.3862 51.1887C65.7459 51.0809 59.401 48.4077 53.5624 43.4673C53.0468 42.8279 52.5312 42.1886 51.9999 41.5298C51.1956 40.5708 51.1956 40.5708 50.3749 39.5923C46.01 33.045 46.3258 26.1527 46.9999 18.5298C48.9378 10.8519 55.0429 5.98065 61.5391 1.95715C66.0229 0.107909 69.7678 0.113212 74.5681 0.149498Z" fill="#1f1840"/>
<path d="M933.125 6.46722C939.314 9.79542 942.803 14.9401 945 21.5297C945.742 28.5777 944.146 33.7415 940 39.5297C935.473 43.8638 930.565 46.4004 924.266 46.6977C918.684 46.2839 914.393 44.7105 910.125 41.0922C909.424 40.2466 908.723 39.401 908 38.5297C907.165 37.5707 907.165 37.5707 906.313 36.5922C903.084 31.519 902.563 26.9802 903.348 21.1235C904.769 15.4743 907.597 11.2468 912.34 7.85784C919.821 3.75429 925.286 3.10909 933.125 6.46722Z" fill="#1f1840"/>
<path d="M818.75 6.65474C824.129 9.97764 828.424 14.226 830 20.5297C830.773 27.3934 830.093 32.8524 826 38.5297C821.245 43.2852 816.337 46.0971 809.625 46.9672C802.121 46.0615 796.896 43.2089 792.191 37.311C788.34 31.5529 788.292 26.3522 789 19.5297C791.004 12.9909 796.643 8.47301 802.375 5.15474C808.368 3.72772 813.202 3.77918 818.75 6.65474Z" fill="#1f1840"/>
<path d="M877.004 7.1196C881.442 10.2552 885.274 14.3515 887 19.5298C887.719 26.4655 887.725 32.106 883.488 37.8462C878.669 43.2981 874.046 45.9851 866.75 46.9673C860.653 46.256 855.369 43.9844 851.063 39.5219C846.351 33.3831 845.19 28.2171 846 20.5298C847.771 14.6817 850.917 10.9512 856 7.52976C863.205 3.89046 869.759 3.17913 877.004 7.1196Z" fill="#1f1840"/>
<path d="M705.004 7.11969C709.442 10.2553 713.274 14.3516 715 19.5298C715.704 26.673 715.382 32.6567 711 38.5298C706.251 43.6932 701.737 46.0267 694.75 46.9673C688.653 46.2561 683.369 43.9845 679.063 39.522C674.347 33.3781 673.2 28.2214 674 20.5298C675.801 14.358 679.631 9.96602 685 6.52985C692.09 3.74468 698.289 3.46775 705.004 7.11969Z" fill="#1f1840"/>
<path d="M761.125 6.4673C767.124 9.74883 770.699 14.2432 772.688 20.7954C773.636 26.4484 772.584 31.4405 770 36.5298C765.855 41.4191 761.695 45.1255 755.18 45.8384C748.325 46.1058 743.393 45.8039 737.879 41.4985C733.674 37.0921 730.859 31.6589 730.375 25.5298C730.86 19.3849 733.579 13.6284 738.23 9.5962C745.801 4.44604 752.522 2.69141 761.125 6.4673Z" fill="#1f1840"/>
<path d="M836.317 78.4163C837.317 78.4215 838.317 78.4267 839.348 78.4321C840.427 78.4354 841.507 78.4386 842.619 78.4419C844.324 78.4545 844.324 78.4545 846.062 78.4673C847.773 78.4741 847.773 78.4741 849.518 78.481C852.345 78.4928 855.173 78.5093 858 78.5298C856.657 82.9545 854.907 86.7915 852.656 90.8267C852.331 91.414 852.005 92.0012 851.669 92.6063C850.618 94.5002 849.559 96.39 848.5 98.2798C847.776 99.5812 847.052 100.883 846.328 102.185C844.892 104.767 843.453 107.348 842.012 109.928C839.801 113.884 837.602 117.847 835.404 121.811C833.606 125.052 831.803 128.291 830 131.53C821.75 131.53 813.5 131.53 805 131.53C806.391 127.356 807.471 124.395 809.582 120.721C810.096 119.82 810.61 118.918 811.14 117.989C811.968 116.555 811.968 116.555 812.812 115.092C813.981 113.049 815.149 111.006 816.316 108.963C816.92 107.911 817.523 106.859 818.145 105.775C820.015 102.504 821.868 99.2239 823.715 95.9399C824.307 94.8867 824.9 93.8335 825.51 92.7483C826.657 90.7091 827.803 88.6696 828.948 86.6296C829.466 85.7124 829.983 84.7951 830.516 83.8501C831.201 82.6322 831.201 82.6322 831.899 81.3896C833.58 78.5504 833.58 78.5504 836.317 78.4163Z" fill="#1f1840"/>
<path d="M799.317 78.4163C800.317 78.4215 801.317 78.4267 802.348 78.4321C803.427 78.4354 804.507 78.4386 805.619 78.4419C807.324 78.4545 807.324 78.4545 809.062 78.4673C810.773 78.4741 810.773 78.4741 812.518 78.481C815.345 78.4928 818.173 78.5093 821 78.5298C819.704 82.7684 818.084 86.4602 815.91 90.3188C815.295 91.4167 814.681 92.5146 814.047 93.6458C813.386 94.8155 812.724 95.9851 812.062 97.1548C811.388 98.356 810.714 99.5576 810.041 100.76C809.02 102.581 807.999 104.403 806.975 106.224C803.803 111.869 800.677 117.54 797.562 123.217C796.057 125.96 794.551 128.704 793 131.53C784.75 131.53 776.5 131.53 768 131.53C769.391 127.356 770.471 124.395 772.582 120.721C773.096 119.82 773.61 118.918 774.14 117.989C774.968 116.555 774.968 116.555 775.812 115.092C776.981 113.049 778.149 111.006 779.316 108.963C779.92 107.911 780.523 106.859 781.145 105.775C783.015 102.504 784.868 99.2239 786.715 95.9399C787.307 94.8867 787.9 93.8335 788.51 92.7483C789.657 90.7091 790.803 88.6696 791.948 86.6296C792.466 85.7124 792.983 84.7951 793.516 83.8501C794.201 82.6322 794.201 82.6322 794.899 81.3896C796.58 78.5504 796.58 78.5504 799.317 78.4163Z" fill="#1f1840"/>
<path d="M762.317 78.4163C763.317 78.4215 764.317 78.4267 765.348 78.4321C766.427 78.4354 767.507 78.4386 768.619 78.4419C770.324 78.4545 770.324 78.4545 772.062 78.4673C773.773 78.4741 773.773 78.4741 775.518 78.481C778.345 78.4928 781.173 78.5093 784 78.5298C782.704 82.7684 781.084 86.4602 778.91 90.3188C778.295 91.4167 777.681 92.5146 777.047 93.6458C776.386 94.8155 775.724 95.9851 775.062 97.1548C774.388 98.356 773.714 99.5576 773.041 100.76C772.02 102.581 770.999 104.403 769.975 106.224C766.803 111.869 763.677 117.54 760.562 123.217C759.057 125.96 757.551 128.704 756 131.53C747.75 131.53 739.5 131.53 731 131.53C732.391 127.356 733.471 124.395 735.582 120.721C736.096 119.82 736.61 118.918 737.14 117.989C737.968 116.555 737.968 116.555 738.812 115.092C739.981 113.049 741.149 111.006 742.316 108.963C742.92 107.911 743.523 106.859 744.145 105.775C746.015 102.504 747.868 99.2239 749.715 95.9399C750.307 94.8867 750.9 93.8335 751.51 92.7483C752.657 90.7091 753.803 88.6696 754.948 86.6296C755.466 85.7124 755.983 84.7951 756.516 83.8501C757.201 82.6322 757.201 82.6322 757.899 81.3896C759.58 78.5504 759.58 78.5504 762.317 78.4163Z" fill="#1f1840"/>
<path d="M725.317 78.4163C726.317 78.4215 727.317 78.4267 728.348 78.4321C729.427 78.4354 730.507 78.4386 731.619 78.4419C733.324 78.4545 733.324 78.4545 735.062 78.4673C736.773 78.4741 736.773 78.4741 738.518 78.481C741.345 78.4928 744.173 78.5093 747 78.5298C745.704 82.7684 744.084 86.4602 741.91 90.3188C741.295 91.4167 740.681 92.5146 740.047 93.6458C739.386 94.8155 738.724 95.9851 738.062 97.1548C737.388 98.356 736.714 99.5576 736.041 100.76C735.02 102.581 733.999 104.403 732.975 106.224C729.803 111.869 726.677 117.54 723.562 123.217C722.057 125.96 720.551 128.704 719 131.53C710.75 131.53 702.5 131.53 694 131.53C695.391 127.356 696.471 124.395 698.582 120.721C699.096 119.82 699.61 118.918 700.14 117.989C700.968 116.555 700.968 116.555 701.812 115.092C702.981 113.049 704.149 111.006 705.316 108.963C705.92 107.911 706.523 106.859 707.145 105.775C709.015 102.504 710.868 99.2239 712.715 95.9399C713.307 94.8867 713.9 93.8335 714.51 92.7483C715.657 90.7091 716.803 88.6696 717.948 86.6296C718.466 85.7124 718.983 84.7951 719.516 83.8501C720.201 82.6322 720.201 82.6322 720.899 81.3896C722.58 78.5504 722.58 78.5504 725.317 78.4163Z" fill="#1f1840"/>
<path d="M688.317 78.4163C689.317 78.4215 690.317 78.4267 691.348 78.4321C692.427 78.4354 693.507 78.4386 694.619 78.4419C696.324 78.4545 696.324 78.4545 698.062 78.4673C699.773 78.4741 699.773 78.4741 701.518 78.481C704.345 78.4928 707.173 78.5093 710 78.5298C708.704 82.7684 707.084 86.4602 704.91 90.3188C704.295 91.4167 703.681 92.5146 703.047 93.6458C702.386 94.8155 701.724 95.9851 701.062 97.1548C700.388 98.356 699.714 99.5576 699.041 100.76C698.02 102.581 696.999 104.403 695.975 106.224C692.803 111.869 689.677 117.54 686.562 123.217C685.057 125.96 683.551 128.704 682 131.53C673.75 131.53 665.5 131.53 657 131.53C658.391 127.356 659.471 124.395 661.582 120.721C662.096 119.82 662.61 118.918 663.14 117.989C663.968 116.555 663.968 116.555 664.812 115.092C665.981 113.049 667.149 111.006 668.316 108.963C668.92 107.911 669.523 106.859 670.145 105.775C672.015 102.504 673.868 99.2239 675.715 95.9399C676.307 94.8867 676.9 93.8335 677.51 92.7483C678.657 90.7091 679.803 88.6696 680.948 86.6296C681.466 85.7124 681.983 84.7951 682.516 83.8501C683.201 82.6322 683.201 82.6322 683.899 81.3896C685.58 78.5504 685.58 78.5504 688.317 78.4163Z" fill="#1f1840"/>
<path d="M910.317 78.4163C911.317 78.4215 912.317 78.4267 913.348 78.4321C914.427 78.4354 915.507 78.4386 916.619 78.4419C918.324 78.4545 918.324 78.4545 920.062 78.4673C921.773 78.4741 921.773 78.4741 923.518 78.481C926.345 78.4928 929.173 78.5093 932 78.5298C930.657 82.9545 928.907 86.7915 926.656 90.8267C926.331 91.414 926.005 92.0012 925.669 92.6063C924.618 94.5002 923.559 96.39 922.5 98.2798C921.776 99.5812 921.052 100.883 920.328 102.185C918.892 104.767 917.453 107.348 916.012 109.928C913.801 113.884 911.602 117.847 909.404 121.811C907.606 125.052 905.803 128.291 904 131.53C895.75 131.53 887.5 131.53 879 131.53C880.474 127.846 881.97 124.562 883.836 121.092C884.4 120.042 884.965 118.991 885.546 117.908C886.451 116.236 886.451 116.236 887.375 114.53C887.993 113.385 888.612 112.239 889.249 111.059C893.352 103.481 897.539 95.9513 901.812 88.4673C902.576 87.1302 902.576 87.1302 903.355 85.7661C907.504 78.5541 907.504 78.5541 910.317 78.4163Z" fill="#1f1840"/>
<path d="M873.317 78.4163C874.317 78.4215 875.317 78.4267 876.348 78.4321C877.427 78.4354 878.507 78.4386 879.619 78.4419C881.324 78.4545 881.324 78.4545 883.062 78.4673C884.773 78.4741 884.773 78.4741 886.518 78.481C889.345 78.4928 892.173 78.5093 895 78.5298C893.657 82.9545 891.907 86.7915 889.656 90.8267C889.331 91.414 889.005 92.0012 888.669 92.6063C887.618 94.5002 886.559 96.39 885.5 98.2798C884.776 99.5812 884.052 100.883 883.328 102.185C881.892 104.767 880.453 107.348 879.012 109.928C876.801 113.884 874.602 117.847 872.404 121.811C870.606 125.052 868.803 128.291 867 131.53C858.75 131.53 850.5 131.53 842 131.53C843.474 127.846 844.97 124.562 846.836 121.092C847.4 120.042 847.965 118.991 848.546 117.908C849.451 116.236 849.451 116.236 850.375 114.53C850.993 113.385 851.612 112.239 852.249 111.059C856.352 103.481 860.539 95.9513 864.812 88.4673C865.576 87.1302 865.576 87.1302 866.355 85.7661C870.504 78.5541 870.504 78.5541 873.317 78.4163Z" fill="#1f1840"/>
</svg>
