<svg width="237" height="340" viewBox="0 0 237 340" fill="none" xmlns="http://www.w3.org/2000/svg">
<path d="M116 7.50267C116.719 7.74501 117.437 7.98735 118.178 8.23704C144.66 17.2636 166.839 31.143 187 50.5027C187.555 51.0333 188.111 51.5639 188.683 52.1106C192.981 56.2971 196.753 60.7237 200.375 65.5027C200.937 66.2432 201.498 66.9838 202.077 67.7468C218.212 89.3497 229.591 114.834 234 141.503C234.204 142.703 234.407 143.903 234.617 145.139C241.166 189.5 229.337 234.697 202.926 270.682C199.242 275.57 195.2 280.057 191 284.503C189.849 285.853 188.703 287.207 187.562 288.565C163.953 315.387 128.526 331.161 94 337.503C92.0683 337.87 92.0683 337.87 90.0977 338.245C59.2459 343.222 28.9023 337.116 0 326.503C0 326.173 0 325.843 0 325.503C0.697463 325.543 1.39493 325.584 2.11353 325.626C47.555 328.147 90.8543 319.509 125.727 288.396C128.193 286.14 130.595 283.824 133 281.503C133.852 280.714 134.704 279.925 135.582 279.112C149.948 265.448 160.516 247.767 168 229.503C168.492 228.315 168.985 227.128 169.492 225.905C172.36 218.768 174.633 211.637 176.312 204.128C176.472 203.415 176.631 202.703 176.795 201.969C178.937 191.744 179.213 181.513 179.24 171.101C179.25 168.902 179.281 166.705 179.312 164.507C179.557 131.616 166.956 97.7738 146 72.5027C145.545 71.9439 145.09 71.385 144.622 70.8093C119.109 39.5427 81.9647 18.3625 41.6023 13.9629C28.8146 12.8739 15.8199 13.3437 3 13.5027C6.69638 10.5439 10.3607 9.2605 14.875 8.00267C16.01 7.68012 16.01 7.68012 17.168 7.35106C49.1787 -1.58975 84.1972 -3.32971 116 7.50267Z" fill="#1f1840"/>
</svg>
