<svg width="219" height="333" viewBox="0 0 219 333" fill="none" xmlns="http://www.w3.org/2000/svg">
<path d="M172.84 0.0345299C169.996 1.9307 167.178 3.21756 164.04 4.54552C123.486 21.7952 91.2353 53.9485 74.5901 94.9095C70.9906 104.072 67.9655 113.417 65.8401 123.035C65.6539 123.863 65.4677 124.692 65.2759 125.546C63.5503 134.336 63.5018 143.063 63.5244 151.986C63.5275 154.568 63.5041 157.15 63.4788 159.732C63.4219 174.543 64.9741 189.227 69.2151 203.472C69.4308 204.215 69.6464 204.957 69.8686 205.722C78.4979 234.67 97.1696 264.113 120.84 283.035C121.369 283.46 121.898 283.885 122.444 284.323C149.144 305.581 181.158 319.907 215.539 321.691C216.299 321.804 217.058 321.918 217.84 322.035C218.17 322.695 218.5 323.355 218.84 324.035C181.206 337.615 136.215 335.551 99.7961 318.956C56.948 298.762 25.1037 264.961 8.86108 220.207C-5.34432 178.822 -2.31654 132.308 16.8401 93.0345C17.1467 92.4021 17.4534 91.7696 17.7693 91.118C25.3132 75.7759 35.4243 62.6914 46.8401 50.0345C47.8533 48.9111 47.8533 48.9111 48.887 47.765C81.0997 13.9691 127.219 -0.814673 172.84 0.0345299Z" fill="#1f1840"/>
</svg>
