<svg width="285" height="211" viewBox="0 0 285 211" fill="none" xmlns="http://www.w3.org/2000/svg">
<path d="M241.938 5.91583C244.769 8.83282 244.975 10.8225 245.438 14.8533C245.047 33.5027 227.055 51.3092 216 65.0408C212.125 64.1658 212.125 64.1658 211 63.0408C210.171 57.9859 212.756 54.8919 215.562 50.9783C216.486 49.6429 217.406 48.3056 218.324 46.9666C218.78 46.3048 219.235 45.6431 219.705 44.9612C225.431 36.4724 231.191 27.2394 233 17.0408C216.496 21.9999 202.866 35.116 190 46.0408C188.758 47.0865 187.516 48.1321 186.273 49.1775C180.351 54.1858 174.534 59.3035 168.812 64.5408C168.001 65.2797 168.001 65.2797 167.173 66.0335C164.465 68.5381 162.163 71.062 160 74.0408C160.85 74.022 161.7 74.0031 162.576 73.9837C173.481 73.8517 184.211 74.6231 195.062 75.6658C196.433 75.7954 196.433 75.7954 197.831 75.9275C214.522 77.5325 230.666 80.2282 247 84.0408C248.535 84.3729 250.07 84.7039 251.605 85.033C258.326 86.6068 264.426 88.9319 270.625 91.9158C271.289 92.2315 271.954 92.5471 272.638 92.8724C277.783 95.5061 281.366 98.7728 284 104.041C284.467 108.153 284.105 111.146 281.574 114.529C271.621 124.087 256.175 125.367 243.188 127.228C242.013 127.406 240.838 127.583 239.627 127.765C228.494 129.394 228.494 129.394 223 129.041C222 128.041 222 128.041 221.75 125.603C221.833 124.758 221.915 123.912 222 123.041C225.045 121.011 226.602 120.592 230.129 119.998C231.156 119.815 232.184 119.631 233.242 119.442C234.338 119.248 235.434 119.054 236.562 118.853C244.82 117.304 252.679 115.45 260.5 112.353C261.252 112.056 262.004 111.759 262.78 111.452C266.581 110.062 266.581 110.062 269 107.041C261.02 103.982 253.252 101.686 244.789 100.478C243.499 100.29 243.499 100.29 242.184 100.098C233.257 98.8513 224.306 98.1298 215.316 97.5328C212.604 97.3519 209.894 97.1572 207.184 96.9607C197.436 96.2746 187.776 95.8478 178 96.0408C178.598 96.6182 179.196 97.1955 179.812 97.7903C184.78 102.612 189.25 107.648 193.57 113.053C195.265 115.137 196.97 117.171 198.742 119.185C245.215 172.019 245.215 172.019 245.312 197.103C245.329 198.105 245.346 199.107 245.363 200.138C244.939 203.526 244.073 205.341 242 208.041C237.579 210.97 233.099 210.968 228 210.041C213.402 204.398 201.091 194.831 189.207 184.853C186.932 182.923 186.932 182.923 184 181.041C184.33 179.391 184.66 177.741 185 176.041C190.503 175.458 193.423 177.258 197.688 180.416C203.585 184.561 209.62 188.184 216 191.541C216.789 191.962 217.577 192.382 218.389 192.816C222.865 195.141 227.099 196.842 232 198.041C224.796 176.618 206.3 158.037 191.266 141.553C189.384 139.467 187.534 137.36 185.691 135.24C180.063 128.797 174.171 122.613 168.257 116.433C165.928 113.965 163.654 111.453 161.379 108.935C159.837 107.282 158.294 105.629 156.75 103.978C156.055 103.186 155.36 102.394 154.643 101.578C150.663 97.4053 147.769 95.4788 141.918 95.0955C136.482 95.4886 133.81 97.0127 130.271 101.07C129.708 101.782 129.144 102.495 128.562 103.228C127.295 104.703 126.026 106.176 124.754 107.646C124.13 108.387 123.506 109.127 122.864 109.89C120.073 113.111 117.053 116.071 114 119.041C110.025 122.961 106.22 126.96 102.605 131.217C100.817 133.249 98.9288 135.141 97 137.041C93.7788 140.219 90.7688 143.509 87.8242 146.943C86.5803 148.374 85.3107 149.782 84.0195 151.17C71.8798 164.238 57.2212 180.637 52 198.041C66.6762 193.114 80.1863 185.57 92.5195 176.244C95 175.041 95 175.041 97.8242 175.838C98.5422 176.235 99.2602 176.632 100 177.041C99.8093 180.827 99.0919 181.953 96.2969 184.619C95.1259 185.524 93.9428 186.414 92.75 187.291C92.1188 187.768 91.4877 188.244 90.8374 188.735C88.9026 190.186 86.9528 191.615 85 193.041C84.17 193.661 84.17 193.661 83.3232 194.294C60.1036 211.627 60.1036 211.627 47.2148 210.58C44.0288 209.804 42.1543 208.482 40 206.041C37.1884 200.418 38.3698 193.093 40.1406 187.326C47.1936 169.553 58.6898 153.324 70 138.041C70.4355 137.452 70.8711 136.864 71.3198 136.257C79.6342 125.098 88.6302 114.517 98.0273 104.26C100.108 101.919 102.063 99.5017 104 97.0408C86.2321 96.7361 68.6999 97.4903 51 99.0408C50.1437 99.1103 49.2875 99.1797 48.4053 99.2513C38.3915 100.08 29.144 102.13 19.5352 105.017C16 106.041 16 106.041 14 106.041C14 107.031 14 108.021 14 109.041C14.6394 109.123 15.2788 109.206 15.9375 109.291C18.5281 109.925 20.2774 110.629 22.625 111.791C33.7539 116.9 46.5557 119.089 58.5078 121.463C61 122.041 61 122.041 62 123.041C62.125 125.541 62.125 125.541 62 128.041C61.67 128.371 61.34 128.701 61 129.041C42.199 128.949 18.1819 127.096 3 115.041C0.404007 111.555 0 109.863 0 105.541C1.52396 100.207 4.41834 97.0806 8.95312 94.0994C25.2793 86.0718 42.239 82.811 60.0649 79.5879C62.6961 79.0975 65.3087 78.5536 67.9258 77.9939C74.1511 76.7391 80.4363 76.115 86.75 75.4783C88.0103 75.349 89.2706 75.2197 90.5691 75.0865C101.702 73.9872 112.821 73.3747 124 73.0408C122.962 72.0934 122.962 72.0934 121.902 71.1268C120.914 70.2233 119.926 69.3196 118.938 68.4158C118.405 67.9287 117.872 67.4416 117.323 66.9398C114.278 64.1506 111.252 61.344 108.25 58.5096C101.05 51.716 93.7755 45.1788 86 39.0408C84.8886 38.1381 83.7779 37.2344 82.668 36.3299C75.108 30.2185 67.3746 24.9765 59 20.0408C58.01 19.3808 57.02 18.7208 56 18.0408C54.3445 17.6558 52.6778 17.3129 51 17.0408C56.1681 31.0183 62.7927 43.3035 71.5312 55.4197C73.1422 58.2946 73.4871 59.8028 73 63.0408C72.01 64.0308 72.01 64.0308 71 65.0408C70.01 65.0408 69.02 65.0408 68 65.0408C66.1363 62.9784 64.4734 60.9455 62.8125 58.7283C62.3242 58.0889 61.8359 57.4496 61.3328 56.7908C60.3422 55.4889 59.3562 54.1834 58.375 52.8743C57.1886 51.2922 55.9864 49.722 54.7812 48.1541C46.5458 37.2226 36.9912 24.3893 39 10.0408C40.7965 7.10659 41.9441 5.56877 45 4.04083C68.6698 0.755428 94.1493 22.2977 111.99 35.5149C119.058 40.8663 125.875 46.5219 132.564 52.3382C135.896 55.2121 139.305 57.6711 143 60.0408C144.017 59.0972 144.017 59.0972 145.055 58.1346C151.181 52.5003 157.395 47.115 164 42.0408C164.698 41.503 165.395 40.9651 166.114 40.4109C225.037 -4.87146 225.037 -4.87146 241.938 5.91583Z" fill="#1f1840"/>
<path d="M143.984 97.2947C148.352 98.9112 151.362 102.273 154.562 105.541C155.279 106.237 155.995 106.933 156.732 107.65C160.804 111.652 164.608 115.828 168.332 120.152C170.922 123.085 173.703 125.807 176.5 128.541C180.577 132.572 184.538 136.628 188.246 141.006C191.318 144.57 194.558 147.985 197.766 151.428C199.845 153.859 201.451 156.25 203 159.041C197.668 164.663 192.917 169.519 186 173.041C184.533 174.028 183.075 175.029 181.625 176.041C165.196 187.003 143.667 188.807 124.477 185.349C110.165 181.823 98.1925 174.383 87 165.041C86.4083 164.548 85.8166 164.056 85.207 163.549C83.8125 162.291 83.8125 162.291 82 160.041C82.1077 155.636 85.6257 152.891 88.5 149.916C89.6022 148.751 90.7037 147.586 91.8047 146.42C92.6221 145.56 92.6221 145.56 93.4561 144.682C95.559 142.447 97.592 140.152 99.625 137.853C103.41 133.623 107.377 129.616 111.445 125.658C113.47 123.583 115.38 121.487 117.277 119.299C121.216 114.765 125.272 110.367 129.438 106.041C130.15 105.266 130.862 104.491 131.596 103.693C138.415 96.6697 138.415 96.6697 143.984 97.2947Z" fill="#1f1840"/>
<path d="M164 30.0408C165.199 30.3599 165.199 30.3599 166.422 30.6854C167.955 31.1116 169.48 31.5702 171 32.0408C169.724 35.8699 167.448 37.1985 164.312 39.4783C156.913 44.9983 149.953 50.9739 143 57.0408C137.682 53.1624 132.612 49.061 127.592 44.803C123.502 41.3718 119.23 38.3361 114.766 35.4158C113.892 34.7352 113.892 34.7352 113 34.0408C113 33.3808 113 32.7208 113 32.0408C118.333 30.7075 123.667 29.3742 129 28.0408C129.998 27.7695 129.998 27.7695 131.017 27.4927C141.695 25.0592 153.652 27.2641 164 30.0408Z" fill="#1f1840"/>
<path d="M184 98.0408C188.292 98.1813 192.583 98.3292 196.875 98.4783C198.681 98.5373 198.681 98.5373 200.523 98.5975C220.254 99.2945 220.254 99.2945 222 101.041C222.93 112.038 221.036 121.543 218 132.041C217.659 133.372 217.321 134.705 217 136.041C216.34 136.041 215.68 136.041 215 136.041C213.277 134.014 211.662 131.975 210.062 129.853C206.262 124.914 202.409 120.042 198.375 115.291C197.925 114.76 197.475 114.23 197.011 113.684C193.29 109.33 189.462 105.082 185.582 100.869C184 99.0408 184 99.0408 184 98.0408Z" fill="#1f1840"/>
<path d="M193 46.0408C208.043 58.2634 208.043 58.2634 209 66.0408C209.66 66.0408 210.32 66.0408 211 66.0408C212.32 69.0108 213.64 71.9808 215 75.0408C198.619 74.3254 182.315 72.6279 166 71.0408C166.782 70.26 167.565 69.4791 168.371 68.6746C169.948 67.0942 171.518 65.5054 173.07 63.9002C178.003 58.8366 183.189 54.2954 188.715 49.8885C191.02 48.0908 191.02 48.0908 193 46.0408Z" fill="#1f1840"/>
<path d="M90 46.0408C95.133 49.6448 99.6168 53.5199 103.98 58.0213C106.602 60.6428 109.395 63.024 112.238 65.4002C114.101 67.1347 115.499 68.9918 117 71.0408C110.808 71.6375 104.615 72.2252 98.4209 72.8047C96.3139 73.0032 94.2071 73.204 92.1006 73.4073C89.0728 73.6991 86.0444 73.9821 83.0156 74.2635C82.0738 74.3561 81.132 74.4488 80.1617 74.5443C79.2811 74.6244 78.4005 74.7046 77.4932 74.7872C76.7204 74.8605 75.9476 74.9337 75.1514 75.0092C72.9195 75.042 71.1302 74.68 69 74.0408C69.3867 73.4002 69.7734 72.7595 70.1719 72.0994C70.6927 71.2345 71.2134 70.3695 71.75 69.4783C72.5872 68.0977 72.5872 68.0977 73.4414 66.6893C75.098 63.9505 75.098 63.9505 76.6875 60.6033C79.843 54.9206 85.3308 50.4927 90 46.0408Z" fill="#1f1840"/>
<path d="M97.9999 99.0408C95.4566 103.026 92.8451 106.427 89.5624 109.853C84.4178 115.396 79.8757 121.302 75.3791 127.378C74.853 128.083 74.327 128.787 73.7851 129.514C73.0872 130.461 73.0872 130.461 72.3751 131.428C70.9999 133.041 70.9999 133.041 67.9999 135.041C65.5432 130.662 64.5844 127.009 63.9999 122.041C63.6699 121.711 63.3399 121.381 62.9999 121.041C62.913 119.479 62.8929 117.914 62.9022 116.349C62.9055 115.405 62.9087 114.461 62.912 113.488C62.9204 112.495 62.9288 111.502 62.9374 110.478C62.9419 109.481 62.9464 108.484 62.9511 107.457C62.9629 104.985 62.9794 102.513 62.9999 100.041C74.6848 99.3296 86.2919 98.8955 97.9999 99.0408Z" fill="#1f1840"/>
</svg>
