<svg width="725" height="203" viewBox="0 0 725 203" fill="none" xmlns="http://www.w3.org/2000/svg">
<path d="M392.699 3.61974C394.598 4.0548 394.598 4.0548 396.535 4.49864C421.709 10.7012 443.067 23.2792 461.879 40.9752C464.513 43.3547 466.28 43.7699 469.733 44.037C470.572 44.1042 471.41 44.1715 472.275 44.2408C473.191 44.3104 474.107 44.38 475.051 44.4518C477.02 44.6095 478.989 44.7675 480.959 44.9259C481.997 45.0081 483.035 45.0904 484.104 45.1751C504.389 46.7951 524.547 48.7671 544.699 51.6197C545.479 51.7291 546.259 51.8384 547.062 51.9511C566.766 54.7163 586.41 57.5597 605.824 61.9767C608.955 62.6768 612.093 63.332 615.234 63.983C631.035 67.3006 646.382 71.5219 661.699 76.6197C662.678 76.942 663.657 77.2643 664.665 77.5963C684.072 84.0587 711.264 93.407 721.699 112.62C724.597 118.63 725.621 124.146 723.699 130.62C715.86 148.864 695.669 157.912 678.324 164.87C623.436 186.264 563.915 194.656 505.637 200.557C504.587 200.665 503.537 200.773 502.455 200.884C490.835 202.063 479.385 202.962 467.699 202.62C468.282 199.57 468.945 196.594 469.82 193.616C478.128 164.925 478.348 137.11 465.699 109.62C465.248 108.598 464.797 107.575 464.332 106.522C456.883 90.5513 445.593 77.3016 431.699 66.6197C430.918 66.0113 430.137 65.4029 429.332 64.776C417.411 55.9457 403.96 50.376 389.699 46.6197C388.557 46.3 387.415 45.9804 386.238 45.651C369.7 41.6372 351.059 42.0404 334.699 46.6197C334.068 46.786 333.437 46.9523 332.786 47.1236C312.76 52.4429 296.757 62.4443 281.699 76.6197C281.096 77.1586 280.493 77.6974 279.871 78.2525C258.825 97.8236 250.248 126.778 248.516 154.565C248.171 167.828 250.229 180.677 254.578 193.167C255.609 196.342 256.191 199.33 256.699 202.62C245.211 202.881 233.996 202.1 222.574 200.932C221.246 200.799 221.246 200.799 219.891 200.664C201.095 198.776 182.38 196.42 163.699 193.62C162.953 193.508 162.206 193.396 161.437 193.281C35.1202 174.267 35.1202 174.267 4.80856 138.381C0.70568 132.524 -0.288236 127.188 0.0663773 120.081C1.78137 110.701 8.15909 104.412 15.5078 98.8033C56.4167 70.813 109.805 62.5645 157.699 54.6197C158.992 54.4048 160.284 54.1898 161.616 53.9684C191.426 49.1288 223.21 44.1748 253.449 44.5572C254.513 44.564 254.513 44.564 255.598 44.5709C257.298 44.5824 258.999 44.6003 260.699 44.6197C260.9 44.077 261.101 43.5343 261.309 42.9752C263.272 39.6489 266.031 37.3947 268.949 34.9322C269.573 34.404 270.196 33.8758 270.838 33.3316C277.098 28.1311 283.691 23.7376 290.699 19.6197C291.272 19.2746 291.845 18.9294 292.435 18.5738C321.826 1.01792 359.499 -4.38808 392.699 3.61974Z" fill="#1f1840"/>
<path d="M362.199 55.0573C366.508 55.7497 367.72 56.4165 370.699 59.6198C372.203 63.3597 373.15 67.2165 374.137 71.1198C377.843 84.7272 381.805 97.7754 394.262 105.745C401.502 109.807 409.169 112.684 417.168 114.866C417.93 115.076 418.691 115.286 419.476 115.502C420.967 115.905 422.463 116.291 423.963 116.657C428.718 117.927 431.185 119.347 433.699 123.62C433.775 127.872 433.281 129.902 430.594 133.217C427.148 136.077 424.693 136.681 420.324 137.557C405.963 140.75 391.837 145.599 383.098 158.225C377.918 167.095 374.878 176.536 372.611 186.49C371.384 191.474 369.883 194.34 365.699 197.62C362.199 198.245 362.199 198.245 358.699 197.62C353.316 193.543 352.375 189.056 350.887 182.807C346.875 167.615 341.921 154.635 328.094 145.991C321.408 142.311 314.461 140.216 307.106 138.355C295.179 135.33 295.179 135.33 291.699 131.307C290.407 127.835 290.528 126.134 291.699 122.62C295.335 118.235 298.186 116.835 303.699 115.62C305.038 115.3 306.375 114.974 307.711 114.643C308.713 114.395 308.713 114.395 309.736 114.142C321.869 110.914 334.683 105.501 341.699 94.6198C346.404 85.6769 349.62 76.5026 351.838 66.6476C353.303 60.6092 355.551 56.1257 362.199 55.0573Z" fill="#1f1840"/>
</svg>
