<svg width="236" height="235" viewBox="0 0 236 235" fill="none" xmlns="http://www.w3.org/2000/svg">
<path d="M50.5086 0.0307617C51.383 0.0206104 52.2574 0.010459 53.1583 0C66.0549 0.171681 77.6758 5.3318 87.1961 14.0308C95.4803 23.0153 99.9373 34.5343 104.593 45.6411C114.475 69.0919 129.219 90.1912 148.946 106.468C149.453 106.891 149.961 107.315 150.484 107.75C165.872 120.384 184.48 129.171 202.958 136.314C215.109 141.179 224.656 150.199 230.321 161.968C235.864 174.997 236.911 187.851 232.208 201.433C226.132 216.048 216.181 225.79 201.571 231.843C189.145 236.622 175.207 235.443 163.106 230.25C146.713 221.972 139.369 209.173 132.556 192.865C113.214 146.938 81.5109 118.463 35.9527 99.5879C19.2037 92.4784 8.90079 82.1595 1.9461 65.4683C-1.34162 54.2671 -0.542599 38.6956 4.94609 28.4683C5.59965 27.1844 5.59965 27.1844 6.26641 25.8745C11.6721 16.0675 19.0201 9.52095 28.9461 4.46826C30.1063 3.84564 30.1063 3.84564 31.2898 3.21045C37.5906 0.359154 43.6982 0.0868141 50.5086 0.0307617Z" fill="#1f1840"/>
<path d="M204.946 8.46827C205.877 8.95425 206.807 9.44023 207.766 9.94093C219.317 16.5972 225.926 26.8384 230.259 39.2183C232.897 52.1242 230.605 64.5621 223.962 75.8355C216.355 86.6515 206.685 91.9641 194.708 97.0971C191.5 98.472 188.308 99.882 185.114 101.289C184.18 101.699 184.18 101.699 183.227 102.117C175.997 105.301 168.949 108.818 161.946 112.468C148.803 102.695 136.928 92.5425 126.946 79.4683C126.173 78.4641 125.399 77.4599 124.602 76.4253C122.946 73.4683 122.946 73.4683 122.915 71.1245C124.431 67.2181 126.417 63.6297 128.446 59.9683C132.271 52.9278 135.588 45.8144 138.634 38.4058C145.488 21.9525 154.048 12.2007 170.645 5.35499C181.47 2.44713 195.066 3.14948 204.946 8.46827Z" fill="#1f1840"/>
<path d="M71.9461 121.468C88.6229 131.681 101.928 145.431 112.946 161.468C112.236 162.853 112.236 162.853 111.513 164.265C107.602 171.958 103.889 179.708 100.384 187.593C97.7277 193.546 95.0602 199.487 92.1961 205.343C91.6856 206.393 91.1752 207.442 90.6492 208.523C84.8516 218.549 75.5782 224.461 64.9461 228.468C63.8942 228.881 62.8423 229.293 61.7586 229.718C48.2097 232.384 35.628 230.058 24.1336 222.406C14.4212 215.521 7.51669 205.121 4.9461 193.468C3.9004 182.085 4.06965 171.547 9.9461 161.468C10.4037 160.651 10.8613 159.834 11.3328 158.992C20.4986 143.975 37.3962 138.561 52.7586 131.774C59.4534 128.78 65.7405 125.391 71.9461 121.468Z" fill="#1f1840"/>
</svg>
