<svg width="407" height="234" viewBox="0 0 407 234" fill="none" xmlns="http://www.w3.org/2000/svg">
<path d="M120.756 0.296327C124.671 1.61651 127.229 3.38459 129.337 7.03095C130.764 10.3146 131.724 13.4454 132.588 16.9174C132.909 18.1766 133.229 19.4358 133.56 20.7331C133.725 21.3879 133.889 22.0427 134.059 22.7174C138.127 39.4597 138.127 39.4597 144.756 55.2963C145.416 55.6263 146.076 55.9563 146.756 56.2963C146.939 55.7431 147.122 55.1898 147.311 54.6198C148.58 50.7993 149.858 46.9837 151.186 43.183C154.282 34.2249 156.911 25.2892 158.931 16.0217C160.322 9.97224 162.103 5.50673 167.006 1.42133C171.563 -0.44305 175.7 -0.181852 180.443 0.921327C186.393 4.45868 187.983 8.41075 189.693 14.9213C190.194 16.9553 190.687 18.9908 191.182 21.0263C195.003 39.8984 195.003 39.8984 203.756 56.2963C209.014 43.553 213.178 30.9319 216.145 17.4494C217.684 10.894 219.333 5.61876 224.756 1.29633C228.824 -0.0596057 232.502 -0.234429 236.756 0.296327C241.823 2.92388 244.923 5.77057 246.72 11.2187C246.995 12.34 247.269 13.4613 247.553 14.6166C248.026 16.492 248.026 16.492 248.51 18.4052C248.672 19.062 248.835 19.7187 249.002 20.3954C252.068 32.734 255.69 44.6133 260.756 56.2963C267.876 44.0401 271.585 29.7338 274.287 15.9035C275.507 10.0981 278.134 5.11474 282.756 1.29633C288.094 -0.482909 292.918 -0.535783 298.068 1.79633C304.32 7.61197 305.726 15.5258 307.506 23.5463C311.036 38.4795 315.817 53.6351 324.756 66.2963C325.5 67.4217 325.5 67.4217 326.26 68.5698C339.747 87.6146 365.518 95.8926 387.381 100.359C395.017 101.937 401.11 103.492 405.756 110.171C407.364 115.196 407.554 119.221 405.193 123.984C403.157 127.775 399.585 129.631 395.756 131.296C392.419 132.253 389.039 132.893 385.631 133.546C369.835 136.87 354.151 142.087 340.756 151.296C339.89 151.888 339.023 152.48 338.131 153.089C318.165 167.851 310.471 193.808 305.63 217.065C304.253 223.344 302.581 227.875 297.568 232.171C293.552 233.778 290.022 233.967 285.756 233.296C281.051 230.988 278.081 227.957 275.756 223.296C274.746 219.946 274.104 216.543 273.443 213.109C271.838 205.432 269.876 198.085 267.131 190.734C266.842 189.956 266.553 189.177 266.255 188.376C264.737 184.436 263.077 180.848 260.756 177.296C255.733 189.155 251.584 201.144 248.732 213.718C248.567 214.434 248.401 215.151 248.231 215.888C247.784 217.858 247.363 219.833 246.943 221.808C245.314 226.594 243.015 229.799 238.717 232.648C235.059 233.858 231.55 233.836 227.756 233.296C223.021 230.841 219.672 228.045 217.96 222.909C217.762 222.033 217.565 221.156 217.361 220.253C217.016 218.778 217.016 218.778 216.663 217.273C216.426 216.229 216.188 215.185 215.943 214.109C212.909 201.369 208.993 189.301 203.756 177.296C197.111 189.569 193.31 202.032 190.631 215.657C189.201 222.558 187.462 226.905 182.068 231.671C177.769 233.78 174.456 234.228 169.756 233.296C164.708 231.098 162.477 228.35 160.421 223.221C159.342 220.099 158.673 216.9 158.006 213.671C155.887 204.038 152.739 194.796 149.513 185.486C148.572 182.764 147.66 180.031 146.756 177.296C143.342 180.418 142.056 184.026 140.506 188.296C140.055 189.516 140.055 189.516 139.594 190.76C136.515 199.402 134.35 208.276 132.329 217.218C130.56 224.632 129.252 228.454 122.717 232.585C119.082 233.903 115.555 233.831 111.756 233.296C107.197 231.017 105.103 228.737 102.756 224.296C101.96 221.688 101.96 221.688 101.361 218.902C101.131 217.872 100.901 216.841 100.664 215.78C100.426 214.692 100.188 213.605 99.9433 212.484C97.6142 202.363 94.9012 192.816 90.7558 183.296C90.4919 182.688 90.2279 182.079 89.956 181.452C80.7135 160.526 65.8006 149.352 45.2832 140.859C37.8575 138.08 30.2743 136.005 22.5905 134.083C5.74143 129.852 5.74143 129.852 1.75581 124.296C-0.48711 118.891 -0.570078 114.577 1.44331 109.121C6.32051 102.342 15.0364 101.364 22.6308 99.4213C47.0974 92.9517 70.8762 85.1633 84.7558 62.2963C92.6863 48.5038 97.1606 33.0521 100.904 17.6713C101.073 16.9864 101.243 16.3014 101.417 15.5956C101.845 13.821 102.243 12.0394 102.639 10.2573C105.795 1.89287 112.484 -0.802984 120.756 0.296327Z" fill="#1f1840"/>
</svg>
