<svg width="640" height="422" viewBox="0 0 640 422" fill="none" xmlns="http://www.w3.org/2000/svg">
<path d="M443.436 4.41857C452.035 11.7183 454.145 20.6608 456.635 31.2389C457.039 32.9145 457.444 34.59 457.849 36.2653C458.056 37.1278 458.264 37.9903 458.478 38.8789C462.31 54.6988 466.324 70.2973 472.436 85.4186C472.96 86.7148 472.96 86.7148 473.493 88.0372C489.556 127.08 515.814 151.1 554.436 167.419C572.73 174.624 591.981 179.253 611.085 183.755C623.051 186.627 630.764 189.703 637.436 200.419C639.605 206.925 639.786 216.553 636.936 222.919C629.517 234.728 617.544 236.461 604.917 239.424C560.314 249.91 513.195 265.594 487.436 306.419C480.018 318.547 474.219 331.041 469.436 344.419C469.114 345.318 468.793 346.217 468.461 347.144C464.788 357.611 461.671 368.158 459.143 378.958C458.949 379.784 458.754 380.611 458.554 381.462C457.59 385.578 456.653 389.698 455.757 393.828C453.672 403.145 451.448 410.081 444.057 416.477C443.337 416.932 442.616 417.387 441.874 417.856C441.151 418.329 440.427 418.802 439.682 419.29C434.094 422.098 426.981 422.529 421.03 420.665C414.06 417.703 409.175 414.148 405.436 407.419C402.802 400.13 401.197 392.481 399.38 384.958C388.112 338.351 372.149 293.72 329.436 267.419C328.568 266.88 328.568 266.88 327.682 266.331C305.398 252.81 278.67 245.543 253.464 239.801C251.784 239.417 251.784 239.417 250.071 239.025C247.978 238.555 245.881 238.103 243.78 237.671C235.869 235.927 228.802 233.024 223.182 227.005C222.75 226.275 222.319 225.545 221.874 224.794C221.419 224.059 220.964 223.324 220.495 222.567C217.37 216.224 217.29 208.373 219.237 201.657C222.128 195.169 226.162 190.759 232.436 187.419C236.52 185.929 240.668 184.939 244.902 183.99C281.172 175.808 320.034 165.868 348.436 140.419C348.927 139.983 349.417 139.547 349.922 139.098C381.925 110.223 392.868 65.5907 402.196 25.1244C402.446 24.0678 402.697 23.0111 402.956 21.9225C403.284 20.512 403.284 20.512 403.619 19.0731C405.897 11.6734 410.688 6.09363 417.436 2.41857C425.927 -1.54399 435.545 -0.370383 443.436 4.41857Z" fill="#1f1840"/>
<path d="M334.436 4.4186C333.856 5.03735 333.856 5.03735 333.264 5.6686C332.483 6.53485 332.483 6.53485 331.686 7.4186C330.921 8.25391 330.921 8.25391 330.139 9.1061C325.012 16.068 323.353 23.3516 321.686 31.7311C311.804 78.3259 294.963 126.4 253.376 153.754C227.269 170.402 196.853 178.909 166.983 185.84C152.013 189.019 152.013 189.019 141.276 199.266C138.559 205.42 138.365 212.504 140.128 218.946C143.134 226.505 148.024 230.199 155.436 233.419C159.341 234.487 163.291 235.321 167.249 236.169C193.773 242.1 219.433 249.45 243.436 262.419C244.479 262.97 245.522 263.522 246.596 264.09C286.222 286.018 304.328 325.935 316.339 367.688C317.797 372.933 319.136 378.193 320.378 383.493C320.532 384.151 320.687 384.809 320.847 385.488C321.581 388.63 322.289 391.774 322.966 394.929C324.838 403.273 327.045 410.491 334.436 415.419C334.436 416.079 334.436 416.739 334.436 417.419C326.953 420.985 320.154 423.203 311.983 420.653C303.708 417.2 299.589 412.778 295.771 404.719C293.695 399.584 292.641 394.409 291.624 388.981C284.518 354.56 273.045 319.836 250.436 292.419C249.842 291.671 249.248 290.923 248.636 290.153C222.64 258.636 176.986 246.832 138.796 238.586C129.147 236.451 119.796 234.053 113.436 225.919C109.094 218.861 108.157 211.244 109.936 203.141C112.367 195.944 116.083 191.905 122.757 188.446C129.452 185.179 136.108 183.592 143.374 182.106C146.036 181.526 148.694 180.926 151.35 180.321C152.023 180.168 152.695 180.015 153.388 179.857C193.547 170.572 235.912 153.695 259.331 117.821C260.035 116.688 260.737 115.554 261.436 114.419C261.977 113.564 261.977 113.564 262.528 112.693C276.148 90.9319 283.468 65.8728 289.468 41.1139C289.642 40.3992 289.816 39.6845 289.996 38.9481C290.854 35.4256 291.696 31.9009 292.509 28.3676C294.91 18.1673 297.496 9.60441 306.471 3.57094C315.901 -1.95905 325.037 -0.0611773 334.436 4.4186Z" fill="#1f1840"/>
<path d="M279.436 4.41858C278.436 7.41858 278.436 7.41858 276.061 9.73108C270.372 15.5561 269.33 22.5912 267.686 30.2936C259.624 66.5088 248.769 102.653 224.436 131.419C223.886 132.103 223.335 132.788 222.768 133.493C196.014 165.839 146.556 180.099 106.936 186.981C99.7412 188.341 93.5798 190.699 88.7527 196.411C86.4264 199.904 84.7621 203.183 84.4363 207.419C84.3332 208.47 84.2301 209.522 84.1238 210.606C84.643 216.94 86.7693 222.288 90.6863 227.294C97.9887 232.936 105.839 234.623 114.683 236.509C148.499 243.8 183.11 254.465 210.436 276.419C211.457 277.238 212.478 278.058 213.53 278.903C244.234 305.294 257.131 346.902 266.257 384.887C266.559 386.141 266.861 387.395 267.173 388.686C267.751 391.114 268.315 393.545 268.864 395.979C270.689 403.694 272.574 410.843 279.436 415.419C279.106 416.409 278.776 417.399 278.436 418.419C271.274 421.935 264.008 422.786 256.311 420.356C248.422 416.939 243.574 411.265 240.436 403.419C239.481 400.161 238.796 396.87 238.124 393.544C227.547 344.72 211.548 296.569 167.65 268.267C141.677 251.914 110.195 243.899 80.452 237.445C72.8516 235.742 65.7351 233.708 60.5613 227.544C60.007 226.907 59.4527 226.27 58.8816 225.614C54.442 218.87 54.7418 211.192 55.4363 203.419C57.0993 196.84 61.8319 192.036 67.4363 188.419C74.3063 185.359 81.5853 183.862 88.8857 182.174C121.111 174.685 155.621 165.097 181.436 143.419C182.305 142.689 183.174 141.959 184.069 141.208C194.429 132.179 202.472 122.204 209.436 110.419C209.781 109.84 210.125 109.262 210.479 108.666C216.847 97.8035 221.274 86.2738 225.436 74.4186C225.702 73.6669 225.967 72.9152 226.24 72.1407C230.504 59.8551 233.582 47.252 236.634 34.6224C242.481 10.5021 242.481 10.5021 252.436 3.41858C261.693 -1.56893 270.431 -0.454119 279.436 4.41858Z" fill="#1f1840"/>
<path d="M387.436 3.4186C387.766 4.4086 388.096 5.3986 388.436 6.4186C387.322 7.1611 387.322 7.1611 386.186 7.9186C380.092 13.4587 378.59 20.9803 376.999 28.7936C376.571 30.7669 376.14 32.7396 375.706 34.7116C375.493 35.6827 375.279 36.6539 375.06 37.6544C367.488 71.2208 355.92 106.504 332.436 132.419C331.974 132.93 331.512 133.441 331.036 133.968C302.544 165.064 259.675 177.43 219.752 186.496C218.986 186.671 218.22 186.846 217.43 187.025C215.975 187.353 214.519 187.673 213.06 187.985C205.946 189.575 200.109 192.486 195.936 198.606C192.448 205.904 192.86 213.794 195.495 221.262C198.013 227.029 201.909 229.741 207.436 232.419C210.008 233.223 212.465 233.907 215.081 234.497C216.159 234.755 216.159 234.755 217.259 235.019C218.793 235.386 220.328 235.749 221.864 236.109C225.924 237.062 229.973 238.06 234.022 239.059C234.83 239.258 235.638 239.458 236.471 239.663C271.917 248.467 305.816 261.45 331.436 288.419C332.005 288.992 332.573 289.566 333.159 290.157C355.552 313.796 366.292 348.711 373.667 379.61C373.86 380.412 374.053 381.214 374.252 382.04C375.216 386.048 376.159 390.06 377.065 394.082C379.643 405.303 379.643 405.303 386.436 414.419C387.096 414.749 387.756 415.079 388.436 415.419C388.106 416.409 387.776 417.399 387.436 418.419C379.755 422.19 372.463 422.707 364.311 419.981C357.757 417.013 353.259 412.405 350.264 405.856C349.124 402.415 348.244 398.949 347.436 395.419C347.223 394.487 347.01 393.556 346.79 392.597C345.784 388.183 344.781 383.768 343.783 379.352C336.279 346.611 323.919 313.869 301.436 288.419C300.837 287.735 300.237 287.052 299.62 286.348C272.055 256.938 225.949 244.229 187.423 237.266C179.665 235.715 172.548 231.917 167.936 225.294C167.472 224.652 167.008 224.01 166.53 223.348C162.965 217.058 163.343 207.784 165.05 200.969C168.127 194.07 174.258 188.985 181.171 186.171C186.411 184.43 191.861 183.409 197.249 182.231C229.601 174.949 264.602 165.228 290.436 143.419C291.429 142.588 292.421 141.758 293.444 140.903C311.581 125.269 323.097 104.595 331.436 82.4186C331.747 81.5976 332.059 80.7767 332.379 79.9308C336.322 69.3213 339.452 58.5828 342.175 47.6061C342.413 46.6495 342.651 45.6929 342.897 44.7073C344.096 39.8761 345.269 35.0406 346.404 30.194C346.844 28.3833 347.284 26.5728 347.725 24.7623C347.91 23.9392 348.094 23.1161 348.284 22.268C350.394 13.7533 355.325 7.45602 362.436 2.4186C370.031 -1.20617 380.063 -0.66246 387.436 3.4186Z" fill="#1f1840"/>
<path d="M221.624 2.41854C222.905 3.06481 224.18 3.72397 225.436 4.41854C225.05 4.81944 224.663 5.22034 224.264 5.63338C223.744 6.20186 223.223 6.77034 222.686 7.35604C221.921 8.17395 221.921 8.17395 221.139 9.00838C215.791 16.5771 214.156 25.2498 212.249 34.1685C201.866 80.8213 185.155 127.259 143.436 154.419C117.838 170.523 87.3621 180.189 57.8042 185.931C49.0277 187.647 41.5859 189.269 35.0613 195.794C30.9665 202.408 29.4056 207.637 30.4363 215.419C32.5379 223.588 35.6982 227.574 42.8699 231.879C47.9669 234.079 53.1987 235.003 58.6238 236.106C97.1274 244.356 135.446 256.739 164.436 284.419C165.036 284.955 165.635 285.491 166.253 286.044C183.811 302.339 194.463 327.254 201.811 349.544C202.041 350.23 202.271 350.917 202.509 351.625C206.957 364.963 210.35 378.504 213.356 392.233C216.266 405.626 216.266 405.626 225.436 415.419C225.436 416.079 225.436 416.739 225.436 417.419C217.84 421.039 211.09 423.258 202.831 420.571C195.322 417.22 190.052 412.431 186.964 404.762C185.497 400.765 184.445 396.717 183.526 392.563C183.179 391.052 182.831 389.542 182.481 388.032C182.302 387.249 182.122 386.466 181.936 385.659C174.201 352.269 163.86 319.031 141.436 292.419C140.794 291.618 140.152 290.818 139.491 289.993C113.668 259.212 69.3218 247.423 31.7019 238.891C20.059 236.225 10.5518 233.683 3.43626 223.419C0.300639 217.77 -0.660622 211.78 0.436262 205.419C2.87918 198.09 6.09319 192.713 12.7019 188.602C20.7494 185.119 29.4513 183.407 37.9485 181.362C70.2681 173.57 102.207 163.636 128.436 142.419C129.288 141.733 130.14 141.047 131.018 140.34C163.293 112.895 175.618 66.5258 184.104 26.7889C185.908 18.432 187.878 10.8749 194.94 5.5201C203.504 0.209945 212.077 -1.86326 221.624 2.41854Z" fill="#1f1840"/>
</svg>
