<svg width="516" height="422" viewBox="0 0 516 422" fill="none" xmlns="http://www.w3.org/2000/svg">
<path d="M221.214 1.77902C230.209 7.35621 234.527 12.8145 237.227 23.0998C237.986 26.4101 238.719 29.7237 239.431 33.0443C242.292 46.27 245.82 59.1471 250.151 71.9665C250.388 72.6708 250.624 73.375 250.868 74.1006C253.026 80.4951 255.209 86.7149 258.339 92.7165C265.994 73.4612 272.379 53.9259 276.96 33.7009C277.215 32.578 277.471 31.4552 277.734 30.2983C278.204 28.1939 278.656 26.0855 279.085 23.9726C280.982 15.3437 284.676 7.62819 292.339 2.71652C299.243 -0.637826 308.016 -0.496716 315.331 1.55637C322.312 4.70725 326.479 9.19261 329.378 16.2439C331.434 22.4721 332.852 28.8544 334.346 35.2353C344.722 79.4941 360.072 125.506 400.102 151.433C425.338 167.046 453.796 175.547 482.522 182.138C483.591 182.39 484.659 182.642 485.76 182.901C487.83 183.388 489.904 183.859 491.982 184.311C500.388 186.293 507.498 189.486 512.339 196.904C516.315 203.903 516.67 212.393 514.725 220.17C511.516 227.352 505.35 232.02 498.253 234.998C495.316 236.101 492.337 236.753 489.272 237.408C487.9 237.71 486.528 238.013 485.157 238.316C484.443 238.472 483.729 238.629 482.994 238.79C449.5 246.183 413.463 256.481 387.339 279.717C386.511 280.401 385.683 281.086 384.831 281.791C352.975 308.803 338.786 356.667 331.714 396.279C329.825 406.243 325.675 412.859 317.339 418.717C310.883 422.091 302.442 421.596 295.589 419.654C287.507 414.836 282.338 409.515 279.651 400.379C279.037 397.813 278.49 395.24 277.964 392.654C277.537 390.69 277.107 388.726 276.674 386.763C276.455 385.761 276.236 384.759 276.009 383.726C271.884 365.218 267.149 345.619 258.339 328.717C255.037 334.923 252.647 341.166 250.464 347.842C250.118 348.891 249.772 349.941 249.415 351.022C245.404 363.361 241.903 375.833 238.999 388.478C238.782 389.42 238.565 390.361 238.341 391.331C237.937 393.107 237.544 394.885 237.162 396.666C235.134 405.694 232.104 412.401 224.339 417.717C218.037 421.498 211.559 421.608 204.339 420.717C197.846 418.796 193.504 415.548 189.592 410.072C185.581 402.536 184.036 394.389 182.209 386.125C172.563 342.854 156.589 296.062 117.573 270.72C116.506 270.059 115.438 269.398 114.339 268.717C113.333 268.066 112.328 267.415 111.292 266.744C90.0853 253.736 64.7554 246.257 40.6784 240.654C39.9394 240.481 39.2004 240.308 38.4389 240.129C34.8123 239.284 31.1829 238.462 27.5417 237.681C18.0761 235.581 9.95796 233.04 4.40106 224.654C3.69088 223.354 3.00007 222.042 2.33856 220.717C1.90544 219.933 1.47231 219.149 1.02606 218.342C-0.81487 211.313 -0.257173 204.066 3.33856 197.717C10.474 187.41 19.8571 185.088 31.5594 182.454C76.2419 172.346 124.476 157.61 150.901 117.092C165.955 93.224 174.768 66.1205 181.257 38.8259C181.412 38.1722 181.567 37.5185 181.728 36.8449C182.474 33.6873 183.2 30.5265 183.905 27.3593C187.553 11.4066 187.553 11.4066 194.276 5.84152C194.924 5.28722 195.573 4.73293 196.241 4.16183C203.085 -0.553638 213.438 -1.13688 221.214 1.77902Z" fill="#1f1840"/>
</svg>
