<svg width="424" height="424" viewBox="0 0 424 424" fill="none" xmlns="http://www.w3.org/2000/svg">
<path d="M211 0C213.677 2.67739 213.807 5.39141 214.41 8.98828C214.675 10.4764 214.941 11.9644 215.207 13.4524C215.346 14.2432 215.484 15.034 215.627 15.8488C223.796 62.0794 233.883 112.296 265 149C266.145 150.516 266.145 150.516 267.312 152.062C295.494 182.865 340.433 193.384 379.419 202.186C382.665 202.924 385.906 203.681 389.145 204.449C400.701 207.173 412.244 209.33 424 211C423.67 211.66 423.34 212.32 423 213C420.576 213.609 418.216 214.092 415.758 214.516C415.011 214.652 414.265 214.788 413.495 214.928C411.883 215.222 410.269 215.512 408.655 215.799C404.4 216.558 400.152 217.35 395.902 218.141C395.052 218.298 394.201 218.456 393.324 218.619C344.464 227.729 286.817 241.124 256.837 284.689C230.739 323.377 221.582 371.451 214.241 416.819C213.891 418.891 213.455 420.949 213 423C212.34 423.33 211.68 423.66 211 424C210.539 421.605 210.08 419.209 209.625 416.812C209.486 416.083 209.348 415.353 209.205 414.602C208.388 410.245 207.676 405.891 207.062 401.5C206.265 396.18 205.091 391.031 203.731 385.827C202.643 381.64 201.644 377.446 200.723 373.219C195.492 349.314 188.984 325.946 178 304C177.699 303.383 177.398 302.766 177.087 302.13C161.842 271.049 135.971 251.57 104.311 238.926C102.257 238.103 100.214 237.258 98.1719 236.406C85.489 231.333 72.2435 228.25 59 225C58.2261 224.807 57.4522 224.614 56.6548 224.415C42.6953 220.936 28.5704 218.125 14.4939 215.164C9.65454 214.144 4.82463 213.088 0 212C0 211.67 0 211.34 0 211C1.14138 210.789 2.28277 210.578 3.45874 210.361C95.2695 195.125 95.2695 195.125 166.31 139.599C172.895 129.92 178.626 119.736 182.895 108.824C183.618 106.975 184.385 105.143 185.199 103.332C189.209 94.3644 191.702 85.022 194.286 75.5708C194.912 73.3175 195.568 71.0778 196.246 68.8398C202.944 46.4281 206.748 22.9753 211 0Z" fill="#1f1840"/>
<path d="M320 300C320.66 300 321.32 300 322 300C322.188 300.884 322.188 300.884 322.38 301.785C322.967 304.506 323.577 307.221 324.188 309.938C324.384 310.864 324.581 311.79 324.783 312.744C326.59 320.668 329.345 328.88 336.176 333.887C345.484 339.567 355.459 341.788 366 344C366 344.33 366 344.66 366 345C365.056 345.159 364.113 345.317 363.141 345.48C353.982 347.145 344.405 348.944 336.793 354.656C335 356 335 356 333 356C332.719 356.574 332.438 357.147 332.148 357.738C331.42 359.172 330.658 360.589 329.852 361.98C325.467 369.87 323.818 378.246 322 387C320 386 320 386 319.409 384.301C319.168 383.21 319.168 383.21 318.922 382.098C318.734 381.294 318.546 380.491 318.353 379.663C318.154 378.805 317.955 377.947 317.75 377.062C315.342 367.475 313.054 359.276 304.375 353.625C295.435 348.88 285.956 346.489 276 345C278.702 343.199 280.124 342.576 283.168 341.852C284.385 341.55 284.385 341.55 285.627 341.242C287.314 340.836 289.001 340.432 290.689 340.031C297.41 338.358 304.73 336.36 309.25 330.75C309.688 330.229 310.127 329.708 310.578 329.172C314.784 322.747 316.841 316.519 318.25 309C318.423 308.13 318.595 307.26 318.773 306.363C319.193 304.244 319.598 302.122 320 300Z" fill="#1f1840"/>
<path d="M104 281C106.309 284.464 106.591 286.846 107.25 290.938C108.976 300.374 112.103 309.923 120.125 315.836C128.994 321.342 138.894 322.95 149 325C149 325.33 149 325.66 149 326C148.452 326.12 147.903 326.24 147.339 326.364C127.793 330.2 127.793 330.2 113.203 342.754C108.635 351.281 106.816 360.575 105 370C103.009 367.014 102.414 364.718 101.708 361.249C99.6764 351.276 97.3402 341.635 88.5625 335.5C81.7581 331.39 74.9585 329.413 67.166 328.096C62.1984 327.198 62.1984 327.198 60 325C61.039 324.758 62.078 324.515 63.1484 324.266C81.4951 320.363 81.4951 320.363 95.125 308.562C99.9208 300.051 102.067 290.504 104 281Z" fill="#1f1840"/>
<path d="M104 35C106.129 38.6575 106.896 42.5435 107.812 46.625C110.072 55.9907 112.439 64.2221 120.863 69.7656C121.568 70.173 122.274 70.5803 123 71C123.633 71.3661 124.266 71.7322 124.918 72.1094C132.395 75.8697 140.876 77.2466 149 79C145.343 81.1288 141.457 81.8962 137.375 82.8125C128.63 84.9131 120 87.3595 114.305 94.8086C108.983 103.747 106.864 113.891 105 124C103.009 121.014 102.414 118.718 101.708 115.249C99.6011 104.902 96.8202 94.4449 87.5273 88.2734C78.9765 83.965 69.4215 81.4853 60 80C62.7433 77.2567 64.9328 77.4025 68.75 76.8125C77.5627 75.2145 86.761 72.4596 93.1016 65.7891C94.6435 63.5636 95.8636 61.4561 97 59C97.5092 57.9133 98.0184 56.8266 98.543 55.707C100.087 51.7782 100.872 48.336 101.625 44.1875C102.891 37.2181 102.891 37.2181 104 35Z" fill="#1f1840"/>
</svg>
