<svg width="275" height="352" viewBox="0 0 275 352" fill="none" xmlns="http://www.w3.org/2000/svg">
<mask id="mask0_1_3629" style="mask-type:luminance" maskUnits="userSpaceOnUse" x="38" y="97" width="145" height="254">
<path d="M38 97.0488H183V350.049H38V97.0488Z" fill="white"/>
</mask>
<g mask="url(#mask0_1_3629)">
<mask id="mask1_1_3629" style="mask-type:luminance" maskUnits="userSpaceOnUse" x="38" y="97" width="145" height="253">
<path d="M182.367 277.717C182.367 317.482 150.133 349.721 110.367 349.721C70.6016 349.721 38.3672 317.482 38.3672 277.717C38.3672 237.951 116.914 97.7168 116.914 97.7168C116.914 97.7168 182.367 237.951 182.367 277.717Z" fill="white"/>
</mask>
<g mask="url(#mask1_1_3629)">
<mask id="mask2_1_3629" style="mask-type:luminance" maskUnits="userSpaceOnUse" x="38" y="97" width="145" height="253">
<path d="M182.367 277.717C182.367 317.482 150.133 349.721 110.367 349.721C70.6016 349.721 38.3672 317.482 38.3672 277.717C38.3672 237.951 116.914 97.7168 116.914 97.7168C116.914 97.7168 182.367 237.951 182.367 277.717Z" fill="white"/>
</mask>
<g mask="url(#mask2_1_3629)">
<path d="M38.3672 97.7168V349.721H182.367V97.7168H38.3672Z" fill="url(#paint0_linear_1_3629)"/>
</g>
</g>
</g>
<path d="M182.367 277.717C182.367 317.482 150.133 349.721 110.367 349.721C70.6016 349.721 38.3672 317.482 38.3672 277.717C38.3672 237.951 116.914 97.7168 116.914 97.7168C116.914 97.7168 182.367 237.951 182.367 277.717Z" stroke="white" stroke-width="4.09091" stroke-miterlimit="10"/>
<mask id="mask3_1_3629" style="mask-type:luminance" maskUnits="userSpaceOnUse" x="0" y="1" width="57" height="99">
<path d="M0 1.04883H57V99.0488H0V1.04883Z" fill="white"/>
</mask>
<g mask="url(#mask3_1_3629)">
<mask id="mask4_1_3629" style="mask-type:luminance" maskUnits="userSpaceOnUse" x="0" y="1" width="57" height="98">
<path d="M56.082 70.6973C56.082 85.9355 43.7266 98.2871 28.4883 98.2871C13.25 98.2871 0.898438 85.9355 0.898438 70.6973C0.898438 55.459 30.9961 1.7168 30.9961 1.7168C30.9961 1.7168 56.082 55.459 56.082 70.6973Z" fill="white"/>
</mask>
<g mask="url(#mask4_1_3629)">
<mask id="mask5_1_3629" style="mask-type:luminance" maskUnits="userSpaceOnUse" x="0" y="1" width="57" height="98">
<path d="M56.082 70.6973C56.082 85.9355 43.7266 98.2871 28.4883 98.2871C13.25 98.2871 0.898438 85.9355 0.898438 70.6973C0.898438 55.459 30.9961 1.7168 30.9961 1.7168C30.9961 1.7168 56.082 55.459 56.082 70.6973Z" fill="white"/>
</mask>
<g mask="url(#mask5_1_3629)">
<path d="M0.898438 1.7168V98.2871H56.082V1.7168H0.898438Z" fill="url(#paint1_linear_1_3629)"/>
</g>
</g>
</g>
<path d="M56.082 70.6973C56.082 85.9355 43.7266 98.2871 28.4883 98.2871C13.25 98.2871 0.898438 85.9355 0.898438 70.6973C0.898438 55.459 30.9961 1.7168 30.9961 1.7168C30.9961 1.7168 56.082 55.459 56.082 70.6973Z" stroke="white" stroke-width="1.56772" stroke-miterlimit="10"/>
<mask id="mask6_1_3629" style="mask-type:luminance" maskUnits="userSpaceOnUse" x="195" y="7" width="79" height="138">
<path d="M195 7.04883H274V144.049H195V7.04883Z" fill="white"/>
</mask>
<g mask="url(#mask6_1_3629)">
<mask id="mask7_1_3629" style="mask-type:luminance" maskUnits="userSpaceOnUse" x="195" y="7" width="79" height="137">
<path d="M273.223 104.861C273.223 126.318 255.828 143.717 234.367 143.717C212.906 143.717 195.512 126.318 195.512 104.861C195.512 83.4004 237.898 7.7168 237.898 7.7168C237.898 7.7168 273.223 83.4004 273.223 104.861Z" fill="white"/>
</mask>
<g mask="url(#mask7_1_3629)">
<mask id="mask8_1_3629" style="mask-type:luminance" maskUnits="userSpaceOnUse" x="195" y="7" width="79" height="137">
<path d="M273.223 104.861C273.223 126.318 255.828 143.717 234.367 143.717C212.906 143.717 195.512 126.318 195.512 104.861C195.512 83.4004 237.898 7.7168 237.898 7.7168C237.898 7.7168 273.223 83.4004 273.223 104.861Z" fill="white"/>
</mask>
<g mask="url(#mask8_1_3629)">
<path d="M195.512 7.7168V143.717H273.223V7.7168H195.512Z" fill="url(#paint2_linear_1_3629)"/>
</g>
</g>
</g>
<path d="M273.223 104.861C273.223 126.318 255.828 143.717 234.367 143.717C212.906 143.717 195.512 126.318 195.512 104.861C195.512 83.4004 237.898 7.71679 237.898 7.71679C237.898 7.71679 273.223 83.4004 273.223 104.861Z" stroke="white" stroke-width="2.20779" stroke-miterlimit="10"/>
<defs>
<linearGradient id="paint0_linear_1_3629" x1="38.367" y1="223.717" x2="182.367" y2="223.717" gradientUnits="userSpaceOnUse">
<stop stop-color="#E8E8E7"/>
<stop offset="0.0078125" stop-color="#E9E9E7"/>
<stop offset="0.015625" stop-color="#E9E9E8"/>
<stop offset="0.0234375" stop-color="#E9E9E8"/>
<stop offset="0.03125" stop-color="#EAEAE8"/>
<stop offset="0.046875" stop-color="#EAEAE9"/>
<stop offset="0.0625" stop-color="#EBEBEA"/>
<stop offset="0.0703125" stop-color="#ECEBEA"/>
<stop offset="0.078125" stop-color="#ECECEB"/>
<stop offset="0.0859375" stop-color="#ECECEB"/>
<stop offset="0.09375" stop-color="#ECECEB"/>
<stop offset="0.109375" stop-color="#EDEDEC"/>
<stop offset="0.117188" stop-color="#EDEDED"/>
<stop offset="0.125" stop-color="#EEEDED"/>
<stop offset="0.132812" stop-color="#EEEEED"/>
<stop offset="0.140625" stop-color="#EEEEEE"/>
<stop offset="0.15625" stop-color="#EFEFEE"/>
<stop offset="0.164062" stop-color="#F0EFEF"/>
<stop offset="0.171875" stop-color="#F0F0F0"/>
<stop offset="0.179688" stop-color="#F1F0F0"/>
<stop offset="0.1875" stop-color="#F1F1F0"/>
<stop offset="0.203125" stop-color="#F2F1F1"/>
<stop offset="0.21875" stop-color="#F2F2F2"/>
<stop offset="0.226562" stop-color="#F3F3F3"/>
<stop offset="0.234375" stop-color="#F3F3F3"/>
<stop offset="0.25" stop-color="#F4F4F4"/>
<stop offset="0.265625" stop-color="#F5F5F4"/>
<stop offset="0.273438" stop-color="#F5F5F5"/>
<stop offset="0.28125" stop-color="#F5F5F5"/>
<stop offset="0.296875" stop-color="#F5F6F6"/>
<stop offset="0.3125" stop-color="#F6F6F6"/>
<stop offset="0.328125" stop-color="#F6F7F7"/>
<stop offset="0.335938" stop-color="#F7F7F7"/>
<stop offset="0.34375" stop-color="#F7F7F7"/>
<stop offset="0.359375" stop-color="#F8F8F8"/>
<stop offset="0.367188" stop-color="#F8F9F9"/>
<stop offset="0.375" stop-color="#F9F9F9"/>
<stop offset="0.382812" stop-color="#F9F9F9"/>
<stop offset="0.390625" stop-color="#F9FAFA"/>
<stop offset="0.40625" stop-color="#F9FAFA"/>
<stop offset="0.421875" stop-color="#FAFAFA"/>
<stop offset="0.429688" stop-color="#FBFBFB"/>
<stop offset="0.4375" stop-color="#FBFBFB"/>
<stop offset="0.453125" stop-color="#FBFCFC"/>
<stop offset="0.46875" stop-color="#FCFCFC"/>
<stop offset="0.476562" stop-color="#FCFDFD"/>
<stop offset="0.484375" stop-color="#FDFDFD"/>
<stop offset="0.5" stop-color="#FDFDFD"/>
<stop offset="0.507812" stop-color="#FDFDFD"/>
<stop offset="0.515625" stop-color="#FEFEFE"/>
<stop offset="0.53125" stop-color="#FEFEFF"/>
<stop offset="0.5625" stop-color="white"/>
<stop offset="0.625" stop-color="white"/>
<stop offset="0.75" stop-color="white"/>
<stop offset="1" stop-color="white"/>
</linearGradient>
<linearGradient id="paint1_linear_1_3629" x1="0.898" y1="50.0018" x2="56.082" y2="50.0018" gradientUnits="userSpaceOnUse">
<stop stop-color="#E8E8E7"/>
<stop offset="0.0078125" stop-color="#E9E9E7"/>
<stop offset="0.015625" stop-color="#E9E9E8"/>
<stop offset="0.0234375" stop-color="#E9E9E8"/>
<stop offset="0.03125" stop-color="#EAEAE8"/>
<stop offset="0.046875" stop-color="#EAEAE9"/>
<stop offset="0.0625" stop-color="#EBEBEA"/>
<stop offset="0.0703125" stop-color="#ECEBEA"/>
<stop offset="0.078125" stop-color="#ECECEB"/>
<stop offset="0.0859375" stop-color="#ECECEB"/>
<stop offset="0.09375" stop-color="#ECECEB"/>
<stop offset="0.109375" stop-color="#EDEDEC"/>
<stop offset="0.117188" stop-color="#EDEDED"/>
<stop offset="0.125" stop-color="#EEEDED"/>
<stop offset="0.132812" stop-color="#EEEEED"/>
<stop offset="0.140625" stop-color="#EEEEEE"/>
<stop offset="0.15625" stop-color="#EFEFEE"/>
<stop offset="0.164062" stop-color="#F0EFEF"/>
<stop offset="0.171875" stop-color="#F0F0F0"/>
<stop offset="0.179688" stop-color="#F1F0F0"/>
<stop offset="0.1875" stop-color="#F1F1F0"/>
<stop offset="0.203125" stop-color="#F2F1F1"/>
<stop offset="0.21875" stop-color="#F2F2F2"/>
<stop offset="0.226562" stop-color="#F3F3F3"/>
<stop offset="0.234375" stop-color="#F3F3F3"/>
<stop offset="0.25" stop-color="#F4F4F4"/>
<stop offset="0.265625" stop-color="#F5F5F4"/>
<stop offset="0.273438" stop-color="#F5F5F5"/>
<stop offset="0.28125" stop-color="#F5F5F5"/>
<stop offset="0.296875" stop-color="#F5F6F6"/>
<stop offset="0.3125" stop-color="#F6F6F6"/>
<stop offset="0.328125" stop-color="#F6F7F7"/>
<stop offset="0.335938" stop-color="#F7F7F7"/>
<stop offset="0.34375" stop-color="#F7F7F7"/>
<stop offset="0.359375" stop-color="#F8F8F8"/>
<stop offset="0.367188" stop-color="#F8F9F9"/>
<stop offset="0.375" stop-color="#F9F9F9"/>
<stop offset="0.382812" stop-color="#F9F9F9"/>
<stop offset="0.390625" stop-color="#F9FAFA"/>
<stop offset="0.40625" stop-color="#F9FAFA"/>
<stop offset="0.421875" stop-color="#FAFAFA"/>
<stop offset="0.429688" stop-color="#FBFBFB"/>
<stop offset="0.4375" stop-color="#FBFBFB"/>
<stop offset="0.453125" stop-color="#FBFCFC"/>
<stop offset="0.46875" stop-color="#FCFCFC"/>
<stop offset="0.476562" stop-color="#FCFDFD"/>
<stop offset="0.484375" stop-color="#FDFDFD"/>
<stop offset="0.5" stop-color="#FDFDFD"/>
<stop offset="0.507812" stop-color="#FDFDFD"/>
<stop offset="0.515625" stop-color="#FEFEFE"/>
<stop offset="0.53125" stop-color="#FEFEFF"/>
<stop offset="0.5625" stop-color="white"/>
<stop offset="0.625" stop-color="white"/>
<stop offset="0.75" stop-color="white"/>
<stop offset="1" stop-color="white"/>
</linearGradient>
<linearGradient id="paint2_linear_1_3629" x1="195.51" y1="75.7168" x2="273.224" y2="75.7168" gradientUnits="userSpaceOnUse">
<stop stop-color="#E8E8E7"/>
<stop offset="0.0078125" stop-color="#E9E9E7"/>
<stop offset="0.015625" stop-color="#E9E9E8"/>
<stop offset="0.0234375" stop-color="#E9E9E8"/>
<stop offset="0.03125" stop-color="#EAEAE8"/>
<stop offset="0.046875" stop-color="#EAEAE9"/>
<stop offset="0.0625" stop-color="#EBEBEA"/>
<stop offset="0.0703125" stop-color="#ECEBEA"/>
<stop offset="0.078125" stop-color="#ECECEB"/>
<stop offset="0.0859375" stop-color="#ECECEB"/>
<stop offset="0.09375" stop-color="#ECECEB"/>
<stop offset="0.109375" stop-color="#EDEDEC"/>
<stop offset="0.117188" stop-color="#EDEDED"/>
<stop offset="0.125" stop-color="#EEEDED"/>
<stop offset="0.132813" stop-color="#EEEEED"/>
<stop offset="0.140625" stop-color="#EEEEEE"/>
<stop offset="0.15625" stop-color="#EFEFEE"/>
<stop offset="0.164063" stop-color="#F0EFEF"/>
<stop offset="0.171875" stop-color="#F0F0F0"/>
<stop offset="0.179687" stop-color="#F1F0F0"/>
<stop offset="0.1875" stop-color="#F1F1F0"/>
<stop offset="0.203125" stop-color="#F2F1F1"/>
<stop offset="0.21875" stop-color="#F2F2F2"/>
<stop offset="0.226563" stop-color="#F3F3F3"/>
<stop offset="0.234375" stop-color="#F3F3F3"/>
<stop offset="0.25" stop-color="#F4F4F4"/>
<stop offset="0.265625" stop-color="#F5F5F4"/>
<stop offset="0.273438" stop-color="#F5F5F5"/>
<stop offset="0.28125" stop-color="#F5F5F5"/>
<stop offset="0.296875" stop-color="#F5F6F6"/>
<stop offset="0.3125" stop-color="#F6F6F6"/>
<stop offset="0.328125" stop-color="#F6F7F7"/>
<stop offset="0.335938" stop-color="#F7F7F7"/>
<stop offset="0.34375" stop-color="#F7F7F7"/>
<stop offset="0.359375" stop-color="#F8F8F8"/>
<stop offset="0.367188" stop-color="#F8F9F9"/>
<stop offset="0.375" stop-color="#F9F9F9"/>
<stop offset="0.382812" stop-color="#F9F9F9"/>
<stop offset="0.390625" stop-color="#F9FAFA"/>
<stop offset="0.40625" stop-color="#F9FAFA"/>
<stop offset="0.421875" stop-color="#FAFAFA"/>
<stop offset="0.429688" stop-color="#FBFBFB"/>
<stop offset="0.4375" stop-color="#FBFBFB"/>
<stop offset="0.453125" stop-color="#FBFCFC"/>
<stop offset="0.46875" stop-color="#FCFCFC"/>
<stop offset="0.476562" stop-color="#FCFDFD"/>
<stop offset="0.484375" stop-color="#FDFDFD"/>
<stop offset="0.5" stop-color="#FDFDFD"/>
<stop offset="0.507813" stop-color="#FDFDFD"/>
<stop offset="0.515625" stop-color="#FEFEFE"/>
<stop offset="0.53125" stop-color="#FEFEFF"/>
<stop offset="0.5625" stop-color="white"/>
<stop offset="0.625" stop-color="white"/>
<stop offset="0.75" stop-color="white"/>
<stop offset="1" stop-color="white"/>
</linearGradient>
</defs>
</svg>
