<svg width="1183" height="1982" viewBox="0 0 1183 1982" fill="none" xmlns="http://www.w3.org/2000/svg">
<path d="M973.957 1589.46C964.664 1496.69 872.816 1381.48 872.816 1381.48C780.898 1266.18 606.426 1128.45 606.426 1128.45C602.727 1123.83 597.117 1121.11 591.199 1121.11C585.27 1121.11 579.672 1123.83 575.973 1128.45C371.848 1290.49 275.145 1411.79 275.145 1411.79C188.652 1520.27 208.441 1589.43 208.441 1589.43C198.227 1602.26 196.25 1619.3 203.277 1633.92C210.828 1649.62 226.824 1659.37 244.977 1659.37L937.426 1659.38C955.574 1659.38 971.555 1649.62 979.117 1633.92C986.156 1619.3 984.176 1602.26 973.957 1589.46Z" fill="black"/>
<path d="M444.598 891.039C497.113 912.578 541.379 946.59 572.567 989.41L575.469 993.398C579.137 998.449 584.985 1001.4 591.199 1001.4C597.426 1001.4 603.274 998.418 606.93 993.398L609.832 989.41C641.043 946.59 685.285 912.578 737.789 891.039C824.051 855.641 893.906 789.84 934.516 705.781C944.555 684.98 943.215 660.859 930.926 641.258C918.586 621.59 897.395 609.871 874.215 609.871C734.617 688.41 603.75 688.41 603.75 688.41C453.008 688.41 308.184 609.871 308.184 609.871C284.992 609.871 263.821 621.59 251.473 641.258C239.176 660.859 237.824 685 247.863 705.781C288.469 789.859 358.332 855.641 444.598 891.039Z" fill="black"/>
<path d="M723.477 953.359C706.879 958.219 695.477 973.449 695.477 990.738C695.477 1008.04 706.879 1023.26 723.477 1028.12C915.066 1084.18 1048.89 1262.89 1048.89 1462.69V1727.3H133.512V1462.69C133.512 1262.89 267.32 1084.18 458.922 1028.12C475.52 1023.26 486.922 1008.04 486.922 990.738C486.922 973.449 475.52 958.219 458.922 953.359C267.32 897.309 133.512 718.609 133.512 518.809V254.199H1048.89V518.809C1048.89 718.609 915.066 897.309 723.477 953.359ZM1126.77 518.809V248.609C1159.23 236.309 1182.38 204.879 1182.38 168.141V86.0586C1182.38 38.6211 1143.8 0 1096.34 0H86.043C38.6016 0 0 38.6211 0 86.0586V168.141C0 204.879 23.168 236.301 55.6367 248.609V518.809C55.6367 718.961 170.203 901.031 343.746 990.738C170.203 1080.45 55.6367 1262.54 55.6367 1462.69V1732.47C23.2969 1743.86 0 1774.64 0 1810.83V1898.78C0 1944.6 37.3008 1981.89 83.1094 1981.89L1099.29 1981.89C1145.11 1981.89 1182.38 1944.61 1182.38 1898.78V1810.83C1182.38 1774.64 1159.1 1743.86 1126.77 1732.47V1462.69C1126.77 1262.54 1012.18 1080.45 838.656 990.738C1012.18 901.031 1126.77 718.961 1126.77 518.809Z" fill="black"/>
</svg>
