<svg width="2475" height="2732" viewBox="0 0 2475 2732" fill="none" xmlns="http://www.w3.org/2000/svg">
<path d="M894.327 2183.25C904.878 2183.15 913.3 2183.03 923.37 2187.18C937.749 2193.13 947.409 2204.03 952.718 2218.49C957.397 2231.27 957.101 2247.63 950.78 2259.84C942.679 2275.48 928.671 2284.59 912.351 2289.97C900.46 2291.35 890.28 2290.84 879.378 2285.37C867.069 2279.2 858.12 2268.06 853.979 2255.02C849.479 2240.8 851.159 2222.45 858.269 2209.31C866.237 2194.61 878.851 2187.57 894.327 2183.25Z" fill="#4DA6E1"/>
<path d="M1535.94 2110.18C1545.99 2110.2 1554.95 2110.76 1564.32 2115.04C1579.64 2122.04 1590.35 2135.72 1595.52 2151.59C1600.52 2166.95 1598.9 2183.87 1591.33 2198.01C1582.45 2214.59 1569.43 2222.75 1551.96 2227.95C1539.16 2229.36 1527.52 2227.24 1516.36 2220.59C1502.92 2212.57 1493.82 2197.4 1490.62 2182.33C1487.22 2166.29 1489.16 2148.03 1498.15 2134.15C1507.69 2119.43 1519.26 2113.4 1535.94 2110.18Z" fill="#4DA6E1"/>
<path d="M1647.36 1840.8C1664.06 1840.03 1680.67 1843.45 1694.91 1852.34C1714.87 1864.8 1727.04 1885.74 1731.63 1908.42C1735.79 1928.92 1731.65 1952.53 1719.73 1969.77C1706.65 1988.7 1686.56 1997.83 1664.62 2001.57C1643.63 2001.26 1625.89 1998.2 1608.46 1985.59C1592.46 1974.01 1579.95 1954.46 1576.65 1934.98C1572.86 1912.66 1578.55 1890.85 1591.71 1872.62C1606.09 1852.71 1623.68 1844.57 1647.36 1840.8Z" fill="#4DA6E1"/>
<path d="M838.762 1906.61C860.071 1904.34 881.2 1908.31 899.891 1918.95C919.032 1929.84 932.962 1948.57 938.302 1969.93C944.72 1995.62 940.321 2025.61 926.04 2047.96C913.212 2068.03 894.302 2077.93 871.751 2083.28C850.962 2085.67 832.591 2083.86 814.212 2072.95C793.54 2060.68 777.891 2039.05 772.04 2015.85C765.962 1991.76 769.423 1966.9 782.29 1945.62C795.399 1923.93 814.579 1912.38 838.762 1906.61Z" fill="#4DA6E1"/>
<path d="M1230.11 2201.02C1250.45 2200.17 1266.88 2203.39 1284.99 2213.1C1308.55 2225.72 1326.3 2249.09 1333.27 2274.83C1339.16 2296.55 1335.82 2321.61 1324.65 2341.1C1310.84 2365.19 1289.69 2379.17 1263.27 2386.27C1242.91 2390.02 1224.55 2388.04 1206.31 2377.84C1182.65 2364.59 1166.73 2339.58 1159.96 2313.78C1153.91 2290.7 1155.81 2264.53 1168.21 2243.82C1182.58 2219.83 1203.51 2207.7 1230.11 2201.02Z" fill="#4DA6E1"/>
<path d="M1102.49 1956.64C1122.52 1957.36 1141.13 1961.73 1157.71 1973.58C1180.96 1990.19 1196.85 2015.65 1200.64 2044.08C1203.85 2068.16 1197.2 2092.08 1182.36 2111.2C1163.8 2135.08 1141.96 2145.43 1112.56 2149.26C1087.49 2148.61 1066.64 2142.28 1047.41 2125.85C1026.71 2108.16 1014.18 2082.89 1012.43 2055.82C1010.84 2031.02 1019.88 2004.58 1036.48 1986.03C1054.16 1966.28 1076.58 1958.25 1102.49 1956.64Z" fill="#4DA6E1"/>
<path d="M1358.86 1941.95C1383.27 1941.25 1406.99 1949.03 1426.32 1964.01C1445.61 1978.96 1459.67 2002.36 1462.86 2026.66C1466.8 2056.64 1458.59 2085.32 1439.86 2109.03C1423 2130.37 1400.79 2137.66 1374.61 2140.45C1348.58 2138.77 1327.98 2132.72 1307.27 2116.33C1287.41 2100.61 1272.01 2076.79 1269.03 2051.36C1265.93 2024.91 1275.29 1996.26 1292.15 1975.81C1309.77 1954.44 1331.75 1944.66 1358.86 1941.95Z" fill="#4DA6E1"/>
<path d="M1218.27 2526.2C1241.67 2523.32 1263.29 2527.62 1283.31 2540.14C1308.39 2555.83 1325.84 2579.49 1331.73 2608.63C1337.27 2636 1332.2 2664.45 1316.74 2687.79C1300.82 2711.82 1278.88 2725.11 1251.07 2730.69C1226.53 2732.58 1206.85 2728.78 1186.16 2715.36C1162.01 2699.69 1143.23 2673.91 1137.44 2645.52C1132.08 2619.29 1134.56 2591.76 1149.62 2569.11C1166.02 2544.44 1189.93 2531.97 1218.27 2526.2Z" fill="#4DA6E1"/>
<path d="M727.7 1219.53C755.641 1216.88 782.801 1224.7 804.809 1242.16C827.629 1260.26 843.371 1286.8 846.821 1315.83L847.102 1318.34C850.66 1346.63 845.641 1376.81 828.571 1400.24C810.43 1425.13 784.262 1438.31 754.461 1443.46C731.645 1446.3 710.145 1441.21 690.582 1429.22C664.621 1413.31 645.692 1388.04 638.953 1358.19C631.715 1326.1 635.91 1295.53 653.758 1267.76C671.328 1240.43 696.5 1226.27 727.7 1219.53Z" fill="#4DA6E1"/>
<path d="M1837.57 1440.45L1824.83 1441.32C1798.1 1442.23 1770.11 1429.49 1750.93 1411.25C1729.43 1390.8 1715.91 1361.38 1715.27 1331.62C1714.61 1301.17 1729.99 1268.05 1751.08 1246.62C1771.16 1226.22 1796.95 1216.12 1825.58 1216.25C1853.55 1216.37 1878.95 1227.77 1898.39 1247.78C1916.09 1266 1929.29 1288.27 1932.75 1313.77C1933.97 1322.81 1933.46 1332.52 1933.37 1341.65C1926.98 1374.65 1910.71 1402.96 1882.35 1422.01C1868.34 1431.43 1854.04 1437.02 1837.57 1440.45Z" fill="#26313F"/>
<path d="M1810.51 1583.04C1833.95 1581.48 1857.77 1589.13 1876.93 1602.5C1898.94 1617.86 1919.92 1645.59 1924.5 1672.45L1926.06 1681.95C1930.1 1710.32 1922.74 1740.22 1905.33 1763.14C1885.87 1788.76 1855.66 1802.26 1824.43 1806.39C1797.56 1807.07 1771.41 1800.14 1749.62 1783.91C1726.38 1766.62 1708.91 1738.17 1705.3 1709.31C1701.41 1678.27 1712.93 1646.84 1732.36 1622.75C1752.34 1598 1779.59 1586.35 1810.51 1583.04Z" fill="#26313F"/>
<path d="M1229.66 1216.76C1253.64 1214.66 1279.46 1220.11 1299.32 1234.1C1324.23 1251.66 1342.04 1282.47 1346.58 1312.45C1351.47 1344.74 1344.16 1376.36 1324.47 1402.42C1305.81 1427.11 1281.32 1440.04 1251.07 1444.45C1225.59 1445.49 1203.38 1441.53 1182.06 1426.73C1157.37 1409.58 1138.69 1382.09 1133.35 1352.29C1127.43 1319.25 1135.41 1285.97 1155 1258.8C1174.16 1232.22 1198.08 1221.66 1229.66 1216.76Z" fill="#4DA6E1"/>
<path d="M1215.93 1588.77C1240.92 1586.82 1267.96 1595.24 1288.11 1610.09C1312.93 1628.37 1330.29 1657.39 1334.41 1688C1338.73 1720.13 1331.27 1750.16 1311.74 1776.05C1291.63 1802.7 1264.4 1814.95 1232.04 1819.34C1205.71 1820.7 1183.63 1815.56 1162.02 1800.03C1136.53 1781.72 1118.3 1753.61 1113.59 1722.39C1108.79 1690.54 1116.54 1657.6 1135.94 1631.73C1155.57 1605.54 1184.29 1593.2 1215.93 1588.77Z" fill="#4DA6E1"/>
<path d="M728.45 1585.95C753.513 1583.97 778.7 1591.33 799.392 1605.38C822.872 1621.33 841.302 1647.09 846.45 1675.29L846.872 1677.71L847.763 1682.61C852.79 1713.88 845.341 1745.54 826.7 1771.17C806.923 1798.36 779.079 1813.27 746.399 1818.36C714.661 1818.41 688.419 1810.34 663.317 1790.31C639.466 1771.28 624.892 1742.59 621.634 1712.43C618.384 1682.31 628.099 1651.88 647.251 1628.41C668.095 1602.88 696.017 1589.42 728.45 1585.95Z" fill="#4DA6E1"/>
<mask id="mask0_1_3663" style="mask-type:luminance" maskUnits="userSpaceOnUse" x="0" y="0" width="2475" height="1196">
<path d="M0 0H2475V1196H0V0Z" fill="white"/>
</mask>
<g mask="url(#mask0_1_3663)">
<mask id="mask1_1_3663" style="mask-type:luminance" maskUnits="userSpaceOnUse" x="0" y="0" width="2475" height="1196">
<path d="M186.32 720.71C197.351 716.699 209.191 712.988 220.862 711.57C223.198 680.39 231.894 650.679 243.003 621.57C272.452 544.421 320.741 480.898 382.894 427.191C457.398 362.789 570.612 320.421 669.593 328.109C706.89 331 742.999 340.738 777.429 355.25C789.441 360.308 805.57 370.5 818.14 373.031L819.109 371.511C830.21 354.441 845.73 339.531 860.999 326.128C918.101 276 987.89 246.21 1061.84 230.999C1082.6 226.73 1104.64 224.089 1125.86 224.218L1126.28 222.378C1130.11 206.121 1137.99 191.968 1146.71 177.851C1177.07 128.679 1221.57 91.3979 1270.61 61.7104C1370.12 1.46044 1489.45 -14.2505 1601.86 14.3784C1730.36 47.1206 1833.22 133.269 1899.57 246.671C1925.24 290.558 1948.52 341.019 1958.43 391.019C1966.06 429.55 1966.19 468.109 1966 507.21L1965.56 615.21C2004.98 604.75 2045.11 598.179 2086 598.789C2154.18 599.82 2226.15 622.429 2284.93 656.679C2370.25 706.39 2438.68 786.339 2463.92 882.949C2481.98 952.109 2478.31 1020.79 2441.18 1083.04C2410.03 1135.28 2357.73 1171.79 2299.08 1186.49C2252.54 1198.16 2201.73 1195.28 2154.04 1195.43L1996.71 1195.91L567.109 1195.96L476.933 1195.68L302.839 1194.96C260.644 1194.69 214.605 1198.17 173.175 1189.57C145.8 1183.89 120.288 1171.63 97.3859 1155.75C50.175 1123.03 16.2023 1073.28 6.11639 1016.39C-8.39533 962.71 6.32342 891.05 32.9719 842.98C66.4875 782.519 119.89 739.531 186.32 720.71Z" fill="white"/>
</mask>
<g mask="url(#mask1_1_3663)">
<mask id="mask2_1_3663" style="mask-type:luminance" maskUnits="userSpaceOnUse" x="0" y="0" width="2475" height="1196">
<path d="M186.32 720.71C197.351 716.699 209.191 712.988 220.862 711.57C223.198 680.39 231.894 650.679 243.003 621.57C272.452 544.421 320.741 480.898 382.894 427.191C457.398 362.789 570.612 320.421 669.593 328.109C706.89 331 742.999 340.738 777.429 355.25C789.441 360.308 805.57 370.5 818.14 373.031L819.109 371.511C830.21 354.441 845.73 339.531 860.999 326.128C918.101 276 987.89 246.21 1061.84 230.999C1082.6 226.73 1104.64 224.089 1125.86 224.218L1126.28 222.378C1130.11 206.121 1137.99 191.968 1146.71 177.851C1177.07 128.679 1221.57 91.3979 1270.61 61.7104C1370.12 1.46044 1489.45 -14.2505 1601.86 14.3784C1730.36 47.1206 1833.22 133.269 1899.57 246.671C1925.24 290.558 1948.52 341.019 1958.43 391.019C1966.06 429.55 1966.19 468.109 1966 507.21L1965.56 615.21C2004.98 604.75 2045.11 598.179 2086 598.789C2154.18 599.82 2226.15 622.429 2284.93 656.679C2370.25 706.39 2438.68 786.339 2463.92 882.949C2481.98 952.109 2478.31 1020.79 2441.18 1083.04C2410.03 1135.28 2357.73 1171.79 2299.08 1186.49C2252.54 1198.16 2201.73 1195.28 2154.04 1195.43L1996.71 1195.91L567.109 1195.96L476.933 1195.68L302.839 1194.96C260.644 1194.69 214.605 1198.17 173.175 1189.57C145.8 1183.89 120.288 1171.63 97.3859 1155.75C50.175 1123.03 16.2023 1073.28 6.11639 1016.39C-8.39533 962.71 6.32342 891.05 32.9719 842.98C66.4875 782.519 119.89 739.531 186.32 720.71Z" fill="white"/>
</mask>
<g mask="url(#mask2_1_3663)">
<path d="M1724.09 -1160.12L3039.84 829.199L749.492 2344.04L-566.254 354.723L1724.09 -1160.12Z" fill="url(#paint0_linear_1_3663)"/>
</g>
</g>
</g>
<defs>
<linearGradient id="paint0_linear_1_3663" x1="2515.48" y1="36.3993" x2="225.134" y2="1551.25" gradientUnits="userSpaceOnUse">
<stop stop-color="#171E26"/>
<stop offset="0.125" stop-color="#171E26"/>
<stop offset="0.15625" stop-color="#171E26"/>
<stop offset="0.171875" stop-color="#171E26"/>
<stop offset="0.179688" stop-color="#171E26"/>
<stop offset="0.183594" stop-color="#171E26"/>
<stop offset="0.1875" stop-color="#181F27"/>
<stop offset="0.191406" stop-color="#181F27"/>
<stop offset="0.195312" stop-color="#181F27"/>
<stop offset="0.199219" stop-color="#181F28"/>
<stop offset="0.203125" stop-color="#182028"/>
<stop offset="0.207031" stop-color="#192029"/>
<stop offset="0.210938" stop-color="#192029"/>
<stop offset="0.214844" stop-color="#192029"/>
<stop offset="0.21875" stop-color="#19212A"/>
<stop offset="0.222656" stop-color="#19212A"/>
<stop offset="0.226563" stop-color="#19212B"/>
<stop offset="0.230469" stop-color="#1A212B"/>
<stop offset="0.234375" stop-color="#1A222B"/>
<stop offset="0.238281" stop-color="#1A222C"/>
<stop offset="0.242188" stop-color="#1A232C"/>
<stop offset="0.246094" stop-color="#1A232D"/>
<stop offset="0.25" stop-color="#1A232D"/>
<stop offset="0.253906" stop-color="#1B232D"/>
<stop offset="0.257812" stop-color="#1B232E"/>
<stop offset="0.261719" stop-color="#1B242E"/>
<stop offset="0.265625" stop-color="#1B242E"/>
<stop offset="0.269531" stop-color="#1B252F"/>
<stop offset="0.273438" stop-color="#1C252F"/>
<stop offset="0.277344" stop-color="#1C2530"/>
<stop offset="0.28125" stop-color="#1C2630"/>
<stop offset="0.285156" stop-color="#1C2631"/>
<stop offset="0.289062" stop-color="#1C2631"/>
<stop offset="0.292969" stop-color="#1D2632"/>
<stop offset="0.296875" stop-color="#1D2732"/>
<stop offset="0.300781" stop-color="#1D2732"/>
<stop offset="0.304688" stop-color="#1D2733"/>
<stop offset="0.308594" stop-color="#1E2833"/>
<stop offset="0.3125" stop-color="#1E2834"/>
<stop offset="0.316406" stop-color="#1E2834"/>
<stop offset="0.320312" stop-color="#1E2934"/>
<stop offset="0.324219" stop-color="#1E2935"/>
<stop offset="0.328125" stop-color="#1F2935"/>
<stop offset="0.332031" stop-color="#1F2A36"/>
<stop offset="0.335938" stop-color="#1F2A36"/>
<stop offset="0.339844" stop-color="#202A37"/>
<stop offset="0.34375" stop-color="#202B37"/>
<stop offset="0.347656" stop-color="#202B37"/>
<stop offset="0.351562" stop-color="#202B38"/>
<stop offset="0.355469" stop-color="#212C38"/>
<stop offset="0.359375" stop-color="#212C39"/>
<stop offset="0.363281" stop-color="#212C39"/>
<stop offset="0.367188" stop-color="#212D3A"/>
<stop offset="0.371094" stop-color="#212D3A"/>
<stop offset="0.375" stop-color="#222D3A"/>
<stop offset="0.378906" stop-color="#222E3B"/>
<stop offset="0.382812" stop-color="#222E3B"/>
<stop offset="0.386719" stop-color="#222E3C"/>
<stop offset="0.390625" stop-color="#232F3C"/>
<stop offset="0.394531" stop-color="#232F3D"/>
<stop offset="0.398438" stop-color="#232F3D"/>
<stop offset="0.402344" stop-color="#23303E"/>
<stop offset="0.40625" stop-color="#24303E"/>
<stop offset="0.410156" stop-color="#24303F"/>
<stop offset="0.414062" stop-color="#24313F"/>
<stop offset="0.417969" stop-color="#24313F"/>
<stop offset="0.421875" stop-color="#253140"/>
<stop offset="0.425781" stop-color="#253240"/>
<stop offset="0.429687" stop-color="#253241"/>
<stop offset="0.433594" stop-color="#253241"/>
<stop offset="0.4375" stop-color="#263342"/>
<stop offset="0.441406" stop-color="#263342"/>
<stop offset="0.445313" stop-color="#263442"/>
<stop offset="0.449219" stop-color="#263443"/>
<stop offset="0.453125" stop-color="#273443"/>
<stop offset="0.457031" stop-color="#273544"/>
<stop offset="0.460938" stop-color="#273544"/>
<stop offset="0.464844" stop-color="#283544"/>
<stop offset="0.46875" stop-color="#283645"/>
<stop offset="0.472656" stop-color="#283645"/>
<stop offset="0.476562" stop-color="#283646"/>
<stop offset="0.480469" stop-color="#293746"/>
<stop offset="0.484375" stop-color="#293747"/>
<stop offset="0.488281" stop-color="#293747"/>
<stop offset="0.492188" stop-color="#2A3848"/>
<stop offset="0.496094" stop-color="#2A3848"/>
<stop offset="0.5" stop-color="#2A3848"/>
<stop offset="0.503906" stop-color="#2A3949"/>
<stop offset="0.507812" stop-color="#2A3949"/>
<stop offset="0.511719" stop-color="#2B394A"/>
<stop offset="0.515625" stop-color="#2B3A4A"/>
<stop offset="0.519531" stop-color="#2B3A4B"/>
<stop offset="0.523438" stop-color="#2B3A4B"/>
<stop offset="0.527344" stop-color="#2B3B4B"/>
<stop offset="0.53125" stop-color="#2C3B4C"/>
<stop offset="0.535156" stop-color="#2C3C4C"/>
<stop offset="0.539062" stop-color="#2C3C4D"/>
<stop offset="0.542969" stop-color="#2D3C4D"/>
<stop offset="0.546875" stop-color="#2D3D4E"/>
<stop offset="0.550781" stop-color="#2D3D4E"/>
<stop offset="0.554688" stop-color="#2E3D4F"/>
<stop offset="0.558594" stop-color="#2E3E4F"/>
<stop offset="0.5625" stop-color="#2E3E50"/>
<stop offset="0.566406" stop-color="#2E3E50"/>
<stop offset="0.570312" stop-color="#2F3F50"/>
<stop offset="0.574219" stop-color="#2F3F51"/>
<stop offset="0.578125" stop-color="#2F3F51"/>
<stop offset="0.582031" stop-color="#2F4052"/>
<stop offset="0.585938" stop-color="#304052"/>
<stop offset="0.589844" stop-color="#304153"/>
<stop offset="0.59375" stop-color="#304153"/>
<stop offset="0.597656" stop-color="#314153"/>
<stop offset="0.601563" stop-color="#314154"/>
<stop offset="0.605469" stop-color="#314254"/>
<stop offset="0.609375" stop-color="#314254"/>
<stop offset="0.613281" stop-color="#324255"/>
<stop offset="0.617188" stop-color="#324355"/>
<stop offset="0.621094" stop-color="#324356"/>
<stop offset="0.625" stop-color="#324356"/>
<stop offset="0.628906" stop-color="#334457"/>
<stop offset="0.632813" stop-color="#334457"/>
<stop offset="0.636719" stop-color="#344558"/>
<stop offset="0.640625" stop-color="#344558"/>
<stop offset="0.644531" stop-color="#344559"/>
<stop offset="0.648438" stop-color="#354659"/>
<stop offset="0.652344" stop-color="#35465A"/>
<stop offset="0.65625" stop-color="#35475A"/>
<stop offset="0.660156" stop-color="#36475A"/>
<stop offset="0.664063" stop-color="#36475B"/>
<stop offset="0.667969" stop-color="#36485B"/>
<stop offset="0.671875" stop-color="#37485C"/>
<stop offset="0.675781" stop-color="#37485C"/>
<stop offset="0.679688" stop-color="#37495C"/>
<stop offset="0.683594" stop-color="#37495D"/>
<stop offset="0.6875" stop-color="#37495D"/>
<stop offset="0.691406" stop-color="#384A5E"/>
<stop offset="0.695312" stop-color="#384A5E"/>
<stop offset="0.699219" stop-color="#384A5F"/>
<stop offset="0.703125" stop-color="#394B5F"/>
<stop offset="0.707031" stop-color="#394B5F"/>
<stop offset="0.710938" stop-color="#394C60"/>
<stop offset="0.714844" stop-color="#3A4C60"/>
<stop offset="0.71875" stop-color="#3A4C61"/>
<stop offset="0.722656" stop-color="#3A4D61"/>
<stop offset="0.726563" stop-color="#3B4D62"/>
<stop offset="0.730469" stop-color="#3B4D62"/>
<stop offset="0.734375" stop-color="#3B4E62"/>
<stop offset="0.738281" stop-color="#3C4E63"/>
<stop offset="0.742188" stop-color="#3C4F63"/>
<stop offset="0.746094" stop-color="#3C4F64"/>
<stop offset="0.75" stop-color="#3C4F64"/>
<stop offset="0.753906" stop-color="#3C5065"/>
<stop offset="0.757813" stop-color="#3D5065"/>
<stop offset="0.761719" stop-color="#3D5066"/>
<stop offset="0.765625" stop-color="#3D5166"/>
<stop offset="0.769531" stop-color="#3E5166"/>
<stop offset="0.773438" stop-color="#3E5267"/>
<stop offset="0.777344" stop-color="#3E5267"/>
<stop offset="0.78125" stop-color="#3F5268"/>
<stop offset="0.785156" stop-color="#3F5368"/>
<stop offset="0.789062" stop-color="#3F5369"/>
<stop offset="0.792969" stop-color="#405469"/>
<stop offset="0.796875" stop-color="#40546A"/>
<stop offset="0.800781" stop-color="#40546A"/>
<stop offset="0.804688" stop-color="#41556B"/>
<stop offset="0.8125" stop-color="#41556B"/>
<stop offset="0.816406" stop-color="#42566C"/>
<stop offset="0.820312" stop-color="#42566C"/>
<stop offset="0.824219" stop-color="#42576D"/>
<stop offset="0.828125" stop-color="#42576D"/>
<stop offset="0.832031" stop-color="#42576D"/>
<stop offset="0.835937" stop-color="#43586E"/>
<stop offset="0.839844" stop-color="#43586E"/>
<stop offset="0.84375" stop-color="#44586F"/>
<stop offset="0.847656" stop-color="#44596F"/>
<stop offset="0.851562" stop-color="#445970"/>
<stop offset="0.855469" stop-color="#455A70"/>
<stop offset="0.859375" stop-color="#455A71"/>
<stop offset="0.863281" stop-color="#455A71"/>
<stop offset="0.867188" stop-color="#455B71"/>
<stop offset="0.871094" stop-color="#465B72"/>
<stop offset="0.875" stop-color="#465C72"/>
<stop offset="0.878906" stop-color="#465C73"/>
<stop offset="0.882813" stop-color="#475C73"/>
<stop offset="0.886719" stop-color="#475D74"/>
<stop offset="0.890625" stop-color="#485D74"/>
<stop offset="0.894531" stop-color="#485E75"/>
<stop offset="0.898438" stop-color="#485E75"/>
<stop offset="0.90625" stop-color="#485F76"/>
<stop offset="0.910156" stop-color="#496077"/>
<stop offset="0.914063" stop-color="#496077"/>
<stop offset="0.917969" stop-color="#4A6078"/>
<stop offset="0.921875" stop-color="#4A6178"/>
<stop offset="0.925781" stop-color="#4B6179"/>
<stop offset="0.929688" stop-color="#4B6279"/>
<stop offset="0.9375" stop-color="#4B6279"/>
<stop offset="0.941406" stop-color="#4C637A"/>
<stop offset="0.945312" stop-color="#4C637A"/>
<stop offset="0.949219" stop-color="#4C637B"/>
<stop offset="0.953125" stop-color="#4C647B"/>
<stop offset="0.957031" stop-color="#4D647C"/>
<stop offset="0.960938" stop-color="#4D657C"/>
<stop offset="0.96875" stop-color="#4D657D"/>
<stop offset="1" stop-color="#4D657D"/>
</linearGradient>
</defs>
</svg>
