<svg width="600" height="600" viewBox="0 0 600 600" fill="none" xmlns="http://www.w3.org/2000/svg">
<path d="M0 16.75V235.121C11.0391 228.73 23.8203 225 37.5 225C78.9219 225 112.5 258.578 112.5 300C112.5 341.422 78.9219 375 37.5 375C23.8203 375 11.0391 371.27 0 364.871V583.25C0 592.5 7.5 600 16.75 600H235.129C228.73 588.961 225 576.18 225 562.5C225 521.078 258.578 487.5 300 487.5C341.422 487.5 375 521.078 375 562.5C375 576.18 371.27 588.961 364.879 600H583.25C592.5 600 600 592.5 600 583.25V16.75C600 7.49999 592.5 -8.9407e-06 583.25 -8.9407e-06H364.879C371.27 11.0391 375 23.8203 375 37.5C375 78.9219 341.422 112.5 300 112.5C258.578 112.5 225 78.9219 225 37.5C225 23.8203 228.73 11.0391 235.129 -8.9407e-06H16.75C7.5 -8.9407e-06 0 7.49999 0 16.75Z" fill="white"/>
</svg>
