<svg width="713" height="713" viewBox="0 0 713 713" fill="none" xmlns="http://www.w3.org/2000/svg">
<path d="M0 35.2695V235.121C11.0391 228.73 23.8203 225 37.5 225C78.9219 225 112.5 258.578 112.5 300C112.5 341.422 78.9219 375 37.5 375C23.8203 375 11.0391 371.27 0 364.871V564.73C0 584.211 15.7891 600 35.2695 600H235.129C228.73 611.039 225 623.82 225 637.5C225 678.922 258.578 712.5 300 712.5C341.422 712.5 375 678.922 375 637.5C375 623.82 371.27 611.039 364.879 600H564.73C584.211 600 600 584.211 600 564.73V364.871C611.039 371.27 623.82 375 637.5 375C678.922 375 712.5 341.422 712.5 300C712.5 258.578 678.922 225 637.5 225C623.82 225 611.039 228.73 600 235.121V35.2695C600 15.7891 584.211 -1.06171e-05 564.73 -1.06171e-05H364.879C371.27 11.0391 375 23.8203 375 37.5C375 78.9219 341.422 112.5 300 112.5C258.578 112.5 225 78.9219 225 37.5C225 23.8203 228.73 11.0391 235.129 -1.06171e-05H35.2695C15.7891 -1.06171e-05 0 15.7891 0 35.2695Z" fill="white"/>
</svg>
