<svg width="713" height="600" viewBox="0 0 713 600" fill="none" xmlns="http://www.w3.org/2000/svg">
<path d="M0 14.0781V585.922C0 593.691 6.30469 600 14.082 600H197.625C191.227 588.961 187.5 576.18 187.5 562.5C187.5 521.078 221.078 487.5 262.5 487.5C303.922 487.5 337.5 521.078 337.5 562.5C337.5 576.18 333.773 588.961 327.375 600H585.918C593.695 600 600 593.691 600 585.922V364.871C611.043 371.27 623.82 375 637.5 375C678.922 375 712.5 341.422 712.5 300C712.5 258.578 678.922 225 637.5 225C623.82 225 611.043 228.73 600 235.121V14.0781C600 6.30858 593.695 -8.9407e-06 585.918 -8.9407e-06H327.375C333.773 11.0391 337.5 23.8203 337.5 37.5C337.5 78.9219 303.922 112.5 262.5 112.5C221.078 112.5 187.5 78.9219 187.5 37.5C187.5 23.8203 191.227 11.0391 197.625 -8.9407e-06H14.082C6.30469 -8.9407e-06 0 6.30858 0 14.0781Z" fill="white"/>
</svg>
