<svg width="825" height="713" viewBox="0 0 825 713" fill="none" xmlns="http://www.w3.org/2000/svg">
<path d="M112.5 16.75V235.121C101.461 228.73 88.6797 225 75 225C33.5781 225 0 258.578 0 300C0 341.422 33.5781 375 75 375C88.6797 375 101.461 371.27 112.5 364.871V583.25C112.5 592.5 120 600 129.25 600H347.629C341.23 611.039 337.5 623.82 337.5 637.5C337.5 678.922 371.078 712.5 412.5 712.5C453.922 712.5 487.5 678.922 487.5 637.5C487.5 623.82 483.77 611.039 477.379 600H695.75C705 600 712.5 592.5 712.5 583.25V364.871C723.539 371.27 736.32 375 750 375C791.422 375 825 341.422 825 300C825 258.578 791.422 225 750 225C736.32 225 723.539 228.73 712.5 235.121V16.75C712.5 7.49999 705 -1.06171e-05 695.75 -1.06171e-05H129.25C120 -1.06171e-05 112.5 7.49999 112.5 16.75Z" fill="white"/>
</svg>
