<svg width="600" height="825" viewBox="0 0 600 825" fill="none" xmlns="http://www.w3.org/2000/svg">
<path d="M300 -1.22935e-05C258.578 -1.22935e-05 225 33.5781 225 75C225 88.6797 228.73 101.461 235.129 112.5H16.75C7.5 112.5 0 120 0 129.25V347.621C11.0391 341.23 23.8203 337.5 37.5 337.5C78.9219 337.5 112.5 371.078 112.5 412.5C112.5 453.922 78.9219 487.5 37.5 487.5C23.8203 487.5 11.0391 483.77 0 477.371V695.75C0 705 7.5 712.5 16.75 712.5H235.129C228.73 723.539 225 736.32 225 750C225 791.422 258.578 825 300 825C341.422 825 375 791.422 375 750C375 736.32 371.27 723.539 364.879 712.5H583.25C592.5 712.5 600 705 600 695.75V129.25C600 120 592.5 112.5 583.25 112.5H364.879C371.27 101.461 375 88.6797 375 75C375 33.5781 341.422 -1.22935e-05 300 -1.22935e-05Z" fill="white"/>
</svg>
