<svg width="600" height="825" viewBox="0 0 600 825" fill="none" xmlns="http://www.w3.org/2000/svg">
<path d="M262.5 -1.22935e-05C221.078 -1.22935e-05 187.5 33.5781 187.5 75C187.5 88.6797 191.227 101.461 197.625 112.5H14.082C6.30469 112.5 0 118.809 0 126.578V698.422C0 706.191 6.30469 712.5 14.082 712.5H197.625C191.227 723.539 187.5 736.32 187.5 750C187.5 791.422 221.078 825 262.5 825C303.922 825 337.5 791.422 337.5 750C337.5 736.32 333.773 723.539 327.375 712.5H585.918C593.695 712.5 600 706.191 600 698.422V477.371C588.957 483.77 576.18 487.5 562.5 487.5C521.078 487.5 487.5 453.922 487.5 412.5C487.5 371.078 521.078 337.5 562.5 337.5C576.18 337.5 588.957 341.23 600 347.621V126.578C600 118.809 593.695 112.5 585.918 112.5H327.375C333.773 101.461 337.5 88.6797 337.5 75C337.5 33.5781 303.922 -1.22935e-05 262.5 -1.22935e-05Z" fill="white"/>
</svg>
