<svg width="713" height="713" viewBox="0 0 713 713" fill="none" xmlns="http://www.w3.org/2000/svg">
<path d="M300 -1.06171e-05C258.578 -1.06171e-05 225 33.5781 225 75C225 88.6797 228.73 101.461 235.129 112.5H35.2695C15.7891 112.5 0 128.289 0 147.77V347.621C11.0391 341.23 23.8203 337.5 37.5 337.5C78.9219 337.5 112.5 371.078 112.5 412.5C112.5 453.922 78.9219 487.5 37.5 487.5C23.8203 487.5 11.0391 483.77 0 477.371V677.23C0 696.711 15.7891 712.5 35.2695 712.5H235.129C228.73 701.461 225 688.68 225 675C225 633.578 258.578 600 300 600C341.422 600 375 633.578 375 675C375 688.68 371.27 701.461 364.879 712.5H564.73C584.211 712.5 600 696.711 600 677.23V477.371C611.039 483.77 623.82 487.5 637.5 487.5C678.922 487.5 712.5 453.922 712.5 412.5C712.5 371.078 678.922 337.5 637.5 337.5C623.82 337.5 611.039 341.23 600 347.621V147.77C600 128.289 584.211 112.5 564.73 112.5H364.879C371.27 101.461 375 88.6797 375 75C375 33.5781 341.422 -1.06171e-05 300 -1.06171e-05Z" fill="white"/>
</svg>
