<svg width="600" height="825" viewBox="0 0 600 825" fill="none" xmlns="http://www.w3.org/2000/svg">
<path d="M300 -1.22935e-05C258.578 -1.22935e-05 225 33.5781 225 75C225 88.6797 228.727 101.461 235.125 112.5H35.2695C15.7891 112.5 0 128.289 0 147.77V347.621C11.043 341.23 23.8203 337.5 37.5 337.5C78.9219 337.5 112.5 371.078 112.5 412.5C112.5 453.922 78.9219 487.5 37.5 487.5C23.8203 487.5 11.043 483.77 0 477.371V677.23C0 696.711 15.7891 712.5 35.2695 712.5H235.125C228.727 723.539 225 736.32 225 750C225 791.422 258.578 825 300 825C341.422 825 375 791.422 375 750C375 736.32 371.273 723.539 364.875 712.5H564.73C584.211 712.5 600 696.711 600 677.23V477.371C588.961 483.77 576.18 487.5 562.5 487.5C521.078 487.5 487.5 453.922 487.5 412.5C487.5 371.078 521.078 337.5 562.5 337.5C576.18 337.5 588.961 341.23 600 347.621V147.77C600 128.289 584.211 112.5 564.73 112.5H364.875C371.273 101.461 375 88.6797 375 75C375 33.5781 341.422 -1.22935e-05 300 -1.22935e-05Z" fill="white"/>
</svg>
